<svg fill="none" height="56" viewBox="0 0 23 56" width="23" xmlns="http://www.w3.org/2000/svg" xmlns:xlink="http://www.w3.org/1999/xlink"><clipPath id="a"><path d="m0 0h23v56h-23z"/></clipPath><g clip-path="url(#a)" fill="#fff"><path d="m17.2385 7.39864c-1.374-1.99946-2.9826-3.06599-5.8315-3.06599-3.28523 0-5.46175 2.06597-5.46175 5.33208 0 3.23287 2.24516 5.33267 5.46175 5.33267 2.816 0 4.5244-1.0665 5.7974-3.0339l3.8204 2.1325c-1.8773 3.5006-5.1269 5.2323-9.5503 5.2323-5.96514 0-10.42201-3.699-10.42201-9.66474 0-5.92953 4.55719-9.66356 10.42201-9.66356 4.4903 0 7.6735 1.76666 9.5867 5.23231z"/><path d="m22.0978 28.6634-11.0152 3.0514-11.0826-3.1034v-4.9236l11.0404 3.1389 11.0703-3.0648z"/><path d="m5.71051 37.5702 5.39729 9.2318h.1343l5.1626-9.2318h5.6637l-8.6169 13.8311v4.5987h-4.85931v-4.5987l-8.545315-13.8311z"/></g></svg>