<svg fill="none" height="40" viewBox="0 0 190 40" width="190" xmlns="http://www.w3.org/2000/svg" xmlns:xlink="http://www.w3.org/1999/xlink"><clipPath id="a"><path d="m0 0h190v40h-190z"/></clipPath><g clip-path="url(#a)" fill="#e9413c"><path d="m30.4735 16.0632c-.0078-.1086-.0539-.2108-.13-.2886-.0568-.4351-.1042-.8491-.1514-1.2512-.1031-1.0612-.2714-2.1149-.5039-3.1553-.0024-.0186-.0087-.0364-.0189-.0521-.0875-.1939-.1797-.4115-.2838-.6883-.4967-2.46118-1.6855-4.72948-3.4269-6.53829s-3.9629-3.083-6.4034-3.672794c-1.1974-.2877-2.4255-.4275083-3.6569-.41629676-1.8065.02395236-3.6063.22438076-5.3739.59842676-1.52264.300363-2.98518.850214-4.32856 1.627344l-.17503.06386c-.6481.23654-1.26545.45651-1.47597.94614l-.07332.0473c-.24341.17223-.46155.37763-.6481.61025l-.53929.45415c-.21052.1774-.39975.33351-.56531.47306-.13691.02273-.27521.03616-.41394.04021-.20082-.3028-.47399-.55075-.79475-.72142-.04627-.03527-.09952-.06025-.15622-.07331-.0567-.01305-.11552-.01387-.17256-.00238-.05641.005-.11072.02379-.15816.05473-.047432.03093-.086531.07306-.113849.12267-.046528.0757-.066503.16476-.056768.25309.063457.90852.071355 1.82009.023654 2.72959-.040211 1.25835-.082788 2.55691.175033 3.82707.01087.056.03997.1068.08277.1444.0428.0377.09687.0601.15376.0638 2.09332.2034 3.79635.3122 5.38112.3311.80183-.0544 1.58713-.1253 2.33693-.2105.08263-.011.15979-.0474.2208-.1042.06103-.0568.10289-.1311.11982-.2128.02008-.0782.01462-.1608-.01559-.2357s-.0836-.1382-.15235-.1806c-.09461-.0615-.1916-.1229-.28858-.1797-.11106-.1432-.24348-.2685-.39263-.3714-.10053-.11545-.17549-.25086-.21998-.39735.43325-.36644.91876-.6662 1.44048-.88936l.25308-.12537c.76591-.35846 1.55631-.66198 2.36531-.90828l.2508-.01419c.5312-.00064 1.062-.03303 1.5895-.09698 1.9466.12299 3.2168.518 4.6667 1.4523.6813.7168 1.255 1.52873 1.703 2.41023.1405.3996.189.8257.142 1.2466-.1284.1128-.267.2134-.414.3004h-.0379c-.5747.026-1.2913.0591-2.1783.0591-.6482 0-1.2797-.0166-1.9302-.0521h-.0307c-.615 0-1.2371-.0354-1.8355-.0685s-1.1709-.0686-1.7385-.0686c-.5106-.004-1.0208.0323-1.5257.1087-.3284-.034-.6585-.0481-.9887-.0425-.49431 0-1.05253.0284-1.59418.052-.86099.0403-1.78583.0734-2.41736.0308-.87197-.2003-1.76397-.3003-2.65863-.298-.76449-.0001-1.5275.0671-2.28017.201-.04893.0095-.094566.0315-.132462.0638-.308805.2741-.56527.6018-.756904.9676-.013495.0231-.021581.049-.023653.0756l-.026018.1656c-.1014339.4658-.1348955.9438-.099344 1.4191.25615 1.3476.371095 2.7183.342972 4.0896-.002252.0182-.002252.0364 0 .0545.279343 1.3482.688069 2.6662 1.220509 3.9359.19396 1.14.88226 1.9064 1.49252 2.5829.25058.2649.47919.5496.68358.8515.00731.0141.0169.0269.02838.0379.56303.603 1.18774 1.1452 1.86388 1.6179.46181.3292.90189.6879 1.31749 1.0738.01828.0178.03898.0329.06148.045.28622.1419.56769.3028.85389.473 1.04074.5748 2.12882 1.1685 3.41552 1.3364 1.4799.3861 3.0005.5941 4.5296.6198.2365 0 .4967 0 .7333-.0237h.0284l.3075-.052c1.2778-.2526 2.5702-.4247 3.8696-.5157.0561-.0051.1095-.0265.1537-.0615.8279-.6883 1.4594-.8373 2.2542-1.0265.317-.0758.6433-.1538 1.0123-.272.0238-.01.0468-.0218.0687-.0355 1.2665-.8972 2.4855-1.8595 3.652-2.8834.1088.097.22.1916.3288.2839.1798.1537.3667.3098.5369.4731.091.0871.2123.1355.3383.1348.1362.0003.2678-.0493.3698-.1395.102-.0903.1674-.2149.1837-.3502.0615-.7308.0756-1.4688.0875-2.1807 0-.5678.0188-1.152.0543-1.7244.0522-.8444.1089-1.7976-.3122-2.6444-.0708-.1418-.1761-.2637-.3064-.3542-.1301-.0905-.281-.1468-.4386-.1638h-.0474-.2672-.0355-.0332c-.0281.0048-.0568.0048-.0851 0h-.0425l-2.1289.0473c-.7995.0331-1.5823.0615-2.3652.0662-.0615.0022-.1221.0141-.1798.0355-.1301 0-.2555.0213-.3548.0332-.4053.0007-.8095.0427-1.2063.1253-.0237 0-.0402 0-.0569 0-.0541-.014-.1113-.0102-.1632.0106s-.0958.0577-.1253.1053c-.0368.0556-.0581.1201-.0615.1869-.0502.1096-.0623.233-.0345.3503.0279.1175.0942.2223.1883.2977l.3099.2531c.1347.1111.2696.2365.4115.3382-.618.4629-1.2833.8594-1.9845 1.1827-.3079.1415-.6079.2995-.8988.4731-.4934.1117-.9935.1908-1.4972.2365-.6018.0549-1.1982.1577-1.7835.3075-1.8189.0379-2.9803-.4494-4.6668-1.4617-.9096-.8545-1.6341-1.8867-2.12881-3.0324-.02366-.3524.06623-.5984.25545-.7096.1493-.0713.30896-.1184.47306-.1395h.0591l.2366-.0167c.6694-.0449 1.4996-.0992 2.4765-.0992.4375 0 .8727 0 1.2915.0331.5676.0425 1.2866.0615 2.1879.0615.9461 0 1.968-.0214 2.9306-.045.3761 0 .7876-.0141 1.2181-.026.7285-.0166 1.4831-.0379 2.24-.0379.6174 0 1.1448.0143 1.6155.0427 1.3223.0543 2.5025.0614 3.2594.0614.537 0 1.0052 0 1.379-.0118.0299-.0008.0595-.0063.0875-.0165.2907-.1126.5645-.2646.8137-.4518.0358-.0274.064-.0636.0818-.105.0179-.0413.0247-.0867.0199-.1316-.0194-.3868.0385-.7735.1703-1.1377.1278-.4589.2602-.9319.097-1.36.049-.0819.072-.1768.0662-.2721z"/><path d="m60.1914 17.0449c.1399-1.5454.1399-3.1002 0-4.6455 0-.0521 0-.097 0-.1301v-.0308c.0733-1.3671.0875-2.95664-.6765-4.55324-.2385-.57261-.5518-1.11107-.932-1.60132-.4043-.57004-.7876-1.10934-.9721-1.7527-.0106-.0398-.0309-.07636-.0591-.10644-.9769-1.03365-1.8923-1.79765-3.1838-2.16664-1.5326-.79948-2.8383-1.03365-4.241-.78292-1.8331.11354-3.1363.38791-4.2126.88936-.5947.07249-1.1825.19353-1.7574.36189-.042.00999-.0805.03125-.1112.0615-.0355.03549-.0686.06624-.1206.12064s-.1395.14665-.201.23652c-.0143.01948-.0254.04101-.0332.06388-.0212.03311-.0378.07332-.0567.1088-.0133.02595-.0221.05392-.026.08278-.0073.01409-.012.02928-.0143.04494l-.0142.03785c-.0141.03771-.019.07828-.0141.11826.0378.26729.0686.55822.0875.84443.0543.8728.0473 1.74324.0378 2.63496v.94614 1.24889.03785c-.0002.03387.0064.06745.0194.09873.013.03129.0321.05964.0563.08339.0353.03731.0663.07859.0922.123.0356.06795.0768.13283.123.19395.0285.03484.0648.06258.1058.08104.0411.01847.0858.02717.1308.02541h.0118l.2247.02365c.0468.00478.094-.00255.1372-.02129.7057-.29078 1.4562-.45801 2.2187-.49435 1.9443.20578 2.6563.49199 3.4368 1.37664.7522 1.0999 1.4192 2.2494 1.2512 4.1913-.0065.0662.013.1325.0545.1845.0169.2989.0113.5985-.0166.8965-.0236.4281-.0544.9603-.0355 1.4617-.1016 1.282-.0663 2.713-.0331 4.2269.0118.4234.0213.8515.0283 1.2961.0923 1.3767.0663 2.9094.0474 4.2576 0 .4187-.0142.8256-.0166 1.2182-.0615.4376-.104.9248-.123 1.3672-.0035.029-.0035.0584 0 .0875.1231.4648.3495.8957.6624 1.2606.0231.0256.0512.046.0825.0603.0313.0142.0652.0219.0996.0226.473.0213 1.114.0473 1.852.0473.6197 0 1.2087-.0189 1.7716-.0568.733-.1087 1.473-.1625 2.214-.1609.3145 0 .6174.0001.9011.0261.0369.0011.0735-.0037.1089-.0142.4684-.1572.8723-.4638 1.1495-.8728.031-.0487.0466-.1056.045-.1632l-.0284-.4116c-.0965-1.1531-.1265-2.3109-.09-3.4675.0624-.6201.0553-1.2454-.0212-1.8639-.1064-.845-.1064-1.7001 0-2.5451.4376-1.7528.3311-3.1104.0402-4.6076z"/><path d="m42.2955 9.56813c.0119-.58188.0237-1.18266 0-1.77636-.026-.42339-.0733-.85152-.1183-1.26309-.022-.18923-.041-.37845-.0567-.56768l-.0236-.21997c-.0923-.8728-.2034-1.96085.0402-2.7627.0108-.03403.0143-.06995.0101-.10543-.0041-.03546-.0156-.06966-.0338-.10035-.0163-.03317-.0407-.06166-.0709-.08278 0-.11828 0-.22235 0-.31459-.0044-.06348-.0303-.12355-.0734-.17031-.1079-.11148-.2324-.20563-.369-.2791-.1257-.07125-.257-.13217-.3926-.18214-.0321-.01374-.0669-.02019-.1018-.01893-.2365 0-.5368.01657-.8798.03075-.6339.02839-1.4192.05914-2.2542.05914h-.3003c-.4329-.01656-.8658-.02365-1.3247-.02365-.6291 0-1.1826.01419-1.6107.02839l-.6741.01419c-.0563.00432-.1107.02217-.1585.05203-.0765.04879-.1485.10419-.2153.16558-.1114.11555-.2105.24237-.2956.37845-.0276.04224-.0424.0915-.0426.14191v1.7669c0 .67649-.0142 1.44758-.0189 2.23524-.0003.03151.0052.06279.0165.09225.3217.86806.2176 1.79764.1089 2.78161-.0757.58041-.1152 1.16501-.1184 1.75031.1342 1.7447.1342 3.497 0 5.2416-.0709.6126-.1584 1.1354-.2365 1.5966-.2365 1.3766-.3926 2.2896.2365 3.749.1059 1.5159.1059 3.0374 0 4.5533-.001.0126-.001.0252 0 .0378.0757 1.3885.1089 2.7273.0994 3.574-.0013.022-.0013.0442 0 .0663.0757.3746.2525.7214.5108 1.0029.0479.0436.1084.071.1728.078l.3642.0166c.473.0284 1.1402.0639 1.8355.0639.5109 0 .9603-.019 1.3695-.0568.6553-.0331 1.3695-.0497 2.117-.0497.544 0 .9698 0 1.2323.0166.0284.0032.0569.0032.0852 0 .1088-.0355.2199-.071.3264-.1113.0301-.0061.0584-.0191.0828-.0377.1028-.0765.1965-.1646.2791-.2626l.0875-.0994c.0411-.0481.0637-.1093.0639-.1726 0-.395.0166-.984.0355-1.606l.0142-.4732c.0011-.0165.0011-.0331 0-.0496-.168-.9792-.1065-2.4055-.045-3.9146.0213-.5039.0426-1.0171.0568-1.5209 0-.6671.0355-1.3341.0686-1.9821.0615-1.2821.1206-2.4931-.0568-3.5859.026-1.5777.0189-2.2116 0-2.486-.0025-.0326-.0072-.065-.0142-.097-.1284-.8946-.0166-1.8072.3241-2.6444.0165-.0371.0239-.0777.0213-.1182-.0237-.44-.0308-.8965-.0308-1.3909-.0544-.3311-.0472-.64806-.0426-.96737z"/><path d="m93.9023 18.5752c0-.5273.0213-1.1566.0545-1.8212.0661-1.2418.1323-2.5238-.0592-3.5054.2058-.9982.1207-1.9821.0354-2.9377-.0981-.80383-.11-1.6158-.0354-2.42213.0035-.01796.0035-.03644 0-.0544-.0592-.85861-.0426-1.95376-.0261-2.92354 0-.369.0143-.72142.0143-1.03601.0032-.02512.0032-.05057 0-.0757-.0284-.08751-.0544-.1774-.0804-.26964-.168-.55822-.3549-1.19686-.7333-1.68175-.0246-.03425-.0575-.06173-.0955-.07992s-.0801-.0265-.1221-.02415l-.7995.03547c-.589.02603-1.2536.05678-1.8047.05678-.2673 0-.4897 0-.6434-.02129-.6405-.08595-1.2863-.12626-1.9325-.12064-.641 0-1.211.03075-1.5729.05678-.057.0013-.1116.02314-.1537.0615-.3755.34559-.6509.786-.7972 1.2749-.0082.0382-.0082.0777 0 .1159.0189.1577.0332.30907.0425.45415v.04967c.0592.84205.0545 1.68884.0427 2.62788v.92248c0 .42338 0 .84914-.0143 1.27489-.0141.42577-.026.86099-.0401 1.28912-.0214.60315-.0474 1.22285-.0474 1.83315 0 .2223 0 .4517-.026.6835-.0047.0306-.0047.0617 0 .0923.1893.6244.1916 1.3459.1988 2.2565v.0402c-.0364.1243-.0364.2565 0 .3808.1098.8637-.0117 1.7409-.352 2.5422-.3404.8012-.8874 1.4977-1.5853 2.0182-1.6841 1.4191-3.2405 2.001-4.8016 1.7976-.0236-.0023-.0474-.0023-.0709 0-.2619.0357-.5259.0539-.7901.0544-.7526.0156-1.4991-.1387-2.1839-.4516-.6847-.3129-1.29-.7763-1.7709-1.3555-1.2371-1.4381-1.8922-2.985-1.9372-4.6005.0167-.0668.0167-.1366 0-.2035-.0425-1.8923.5842-3.3729 1.9136-4.5485.0168-.0148.0319-.0314.0449-.0496.9461-1.40504 2.6019-1.54933 4.5106-1.71963l.2508-.02365c1.3791-.01998 2.7361.34714 3.917 1.05967.0458.02922.0997.04334.154.04038.0543-.00297.1063-.02289.1487-.05694.071-.05441.1396-.11353.2035-.17267.195-.21345.3604-.45211.4919-.7096l.0545-.09934c.0232-.03765.0356-.08107.0354-.12536 0-.50145 0-.88464-.0237-1.2418-.0307-.43759-.0851-.8728-.1395-1.2962-.0212-.1774-.045-.35716-.0638-.53693l-.0143-.123c-.0987-.66375-.1367-1.33512-.1135-2.00578.0005-.04472-.0084-.08904-.026-.1301-.12-.2423-.2625-.47277-.4257-.6883-.0389-.04968-.0929-.08538-.1538-.10172l-.1869-.04257-.2956-.07096c-.4329-.09225-.8657-.20342-1.3222-.32169l-.3288-.08751c-.2759-.0982-.5612-.16718-.8515-.20579-.8232-.20794-1.6702-.30655-2.5191-.2933-.2815-.02129-.5748-.04258-.8751-.07805h-.0379c-.3028.03547-.6031.05676-.9083.07569-.792.0365-1.5788.14496-2.3511.32405-1.1074.13247-2.1642.53896-3.075 1.18266-.7569.19395-1.8922.88936-2.7106 2.00342-.502.45114-.9354.97307-1.2868 1.54929-.2365.34534-.473.7096-.7805 1.08097-.0301.03551-.049.07912-.0545.12536-.0851.59605-.6835 2.1548-1.2985 3.1932-.0127.0205-.0223.0428-.0283.0662-.3288 1.1827-.667 2.4292-.5417 3.8933-.0075.006-.0138.0132-.019.0213-.0371.0544-.0568.1187-.0567.1845.0022.0984.0335.1937.0899.2744.0203 1.2953.1926 2.5837.5132 3.839.0053.0385.0218.0747.0474.104.4192.549.7029 1.1892.8279 1.8686.108.4775.2665.9421.473 1.3861l.0236.0401c.3289.4732.6386.8445.9651 1.2395.3264.395.6954.8325 1.0833 1.3979.0203.0263.0451.0486.0733.0663.3667.2365.7522.5132 1.1638.7995 1.0052.7095 2.0484 1.4191 2.9447 1.8355.8114.3831 1.6345.4588 2.5073.5368.7274.1509 1.4626.2615 2.2021.3312l.0805.0212.0828.0238h.0567c.3383.0188.7215.0377 1.0975.0377h.1869c1.99.0474 3.9751-.2184 5.8826-.7876.0911.0201.1855.0201.2768 0h.0567c.2575-.0674.5216-.107.7876-.1183.3193 0 .44.1018.4992.2129-.0332.149-.0687.298-.1113.4565-.0022.0205-.0022.0411 0 .0615-.0307.7664-.6126 1.696-1.4191 2.2565l-.0308.0238c-.738.7095-1.7196 1.2701-2.434 1.431h-.0448c-.8517.3467-1.7605.5312-2.68.544-.2742.0002-.5478-.0219-.8184-.0663h-.0899c-2.0909.1396-3.7845-.0851-5.0522-.6694l-.071-.0212c-1.3507-.1889-2.6428-.6735-3.7845-1.4193-.0415-.0275-.0899-.043-.1397-.0448-.3703-.0168-.7396.0528-1.0785.2033-.0608.028-.109.0778-.1348.1395-.194.4732-.5559 1.3365-1.0644 2.3654-.5388.6864-.949 1.4645-1.2111 2.2968-.0129.0463-.0129.0955 0 .1418.0958.4518.2593.8863.485 1.2892.0227.0448.0591.0813.104.1041.5117.2481 1.0396.4615 1.5801.6386.2365.0828.473.1655.6504.2365.6421.2725 1.307.4879 1.9868.6434.4377.1159.8492.2365 1.1449.3264.9441.3091 1.9229.4998 2.914.5677l.4305.0449c.0158.0024.0316.0024.0474 0 .5167-.0158 1.0334.0344 1.5374.149.396.0864.799.1362 1.204.149.2402.003.4793-.0305.7096-.0993.383.117.7821.1729 1.1826.1656.7518-.0268 1.4989-.1282 2.2305-.3028.1916-.0379.3761-.0756.5488-.1064.9182-.0975 1.8261-.2756 2.713-.5322.2247-.0568.4495-.1183.6955-.1774 1.0042-.3004 1.9713-.713 2.8832-1.23.8676-.4604 1.6551-1.0578 2.3323-1.7693 1.405-1.0076 2.1713-3.0441 2.7887-4.6975.1939-.2507.2933-.8113.4423-1.7315.0666-.4692.1597-.9343.2791-1.3931.22-.7096.2152-1.6226.2129-2.5096 0-.4163 0-.8113.0142-1.1826.0029-.0582-.0137-.1157-.0474-.1633-.0123-.3571.0043-.7146.0497-1.0691l.0285-.3524c.3027-.6481.2033-1.4192.0922-2.3322-.1029-.6207-.1519-1.249-.1467-1.8782z"/><path d="m123.731 26.9057c-.077-.4401-.104-.8878-.078-1.334.004-.0298.004-.06 0-.0898-.087-.4556-.087-.9235 0-1.379.081-.5308.081-1.0707 0-1.6014.06-.516.052-1.0376-.024-1.5516-.079-.4698-.079-.9494 0-1.4191.008-.0344.008-.0699 0-.1042-.106-.6189-.121-1.25-.044-1.8734.021-.2365.044-.499.049-.7733 0-.3194 0-.6245-.014-.9084 0-.6718-.019-1.3624 0-1.5824.02-.0337.029-.0722.028-.1111.06-2.1667-.373-3.8366-.759-5.31729-.414-1.55432-1.255-2.96139-2.429-4.06126-1.183-1.28674-2.474-1.84495-4.033-2.42919-.631-.25936-1.294-.43586-1.97-.5251-.237-.04257-.488-.08752-.786-.14665-.374-.0365-.751-.05229-1.128-.04731-.647.01817-1.295-.02938-1.932-.14191-.03-.00575-.06-.00575-.09 0-.41.05226-.824.07676-1.237.07332h-.445-.426c-.425-.00522-.85.02484-1.27.08988-.391.06682-.786.10476-1.183.11353-.683.03075-1.331.0615-1.738.36899-1.748.23654-2.838.73089-3.993 1.26309-.044.0199-.082.05187-.108.09225-.2319.33335-.4143.69816-.5421 1.08331-.02.05745-.02.11996 0 .1774.2941.77928.4811 1.59488.5561 2.42446-.002.01652-.002.03315 0 .04968.267.94612.565 1.93482.778 2.56164.019.05692.058.1054.109.13719l.13.08517c.236.1674.489.3101.754.4257.046.0198.096.0247.145.0142.656-.1365 1.298-.3369 1.916-.5984.406-.16084.832-.32641 1.326-.47306.913-.31123 1.875-.45155 2.839-.41393h.804.431c.26-.01656.513-.02366.749-.02366 1.718 0 2.914.4234 3.667 1.30805.417.4168.76.9015 1.014 1.4334.083.3743.079.7628-.011 1.1354-.01.0343-.012.0703-.008.1057.005.0354.017.0694.036.1.284.473.281 1.1283.277 1.5729-.015.7217-.072 1.4419-.168 2.1572-.036.2697-.067.5417-.097.8113-.04.3311-.076.66-.123.9911-.048.3311-.1.7096-.154 1.0644-.076.4896-.154.9981-.208 1.4996-.049.5163-.172 1.0228-.364 1.5044-.237 1.1471-.961 2.1571-2.129 2.3795-.86.212-1.733.3645-2.614.4565-.199-.0166-.378-.026-.544-.0355-1.057-.0615-1.497-.0899-2.495-.8231l-.237-.2105c-.745-.7097-1.095-1.0219-.932-2.0531.049-.0488.083-.1108.097-.1784.015-.0677.009-.138-.016-.2025-.012-.0224-.026-.0431-.043-.0615.132-1.1448.343-1.949 1.299-2.467.48-.0815.951-.2155 1.402-.3998.79-.2791 1.687-.596 2.673-.615.408-.0334.818-.0214 1.223.0355.034.0071.07.0071.104 0h.043c.071-.0189.137-.0379.203-.0615.01-.0025.02-.0064.028-.0117.332-.1613.606-.4205.786-.7428.021-.0347.033-.075.033-.1159v-.0567c0-.0498 0-.0994 0-.1491 0-.3808-.019-.764-.045-1.1307 0-.1371-.019-.2743-.024-.4115v-.1182c-.044-.4904-.04-.984.012-1.4736.008-.0472.002-.0955-.017-.1395l-.011-.0308c-.022-.0587-.05-.115-.083-.168l-.024-.0379c-.016-.0295-.038-.056-.064-.078l-.038-.0378-.023-.0237-.04-.0331c-.018-.0281-.04-.053-.067-.0734-.152-.106-.31-.2038-.473-.2932-.028-.0148-.058-.0251-.09-.0308-.242-.0327-.486-.0486-.73-.0472-.192 0-.384 0-.58.0141-.196.0143-.388.0166-.587.0166-.466.0079-.931-.0551-1.379-.1868-.038-.0097-.077-.0097-.115 0-.687.0972-1.379.1572-2.072.1797-.98.0496-1.893.0994-2.65.3784-1.338.3404-2.603.9206-3.734 1.7125-1.0909.5725-1.597 1.4192-2.3019 2.6019l-.2034.343c-.0052.0092-.01.0187-.0142.0283-.6694 1.5115-.9626 2.8219-.8751 3.9099-.0229.019-.0435.0404-.0615.0639.0236.168.0472.3359.0615.5061 0 0 .0141.0167.026.019-.0474 1.5304.2577 2.914.8396 3.7349.388.5297.7309.9626 1.0621 1.3836.3311.4212.6646.8445 1.0691 1.3862 1.0568 1.2725 1.9438 1.4736 3.2738 1.7763 1.229.3661 2.502.5635 3.784.5867h.237c2.169 0 3.515-.4377 5.038-1.01.591-.1578 1.141-.44 1.613-.8279l.114-.0332c.54-.0935 1.093-.0935 1.634 0v.6506c0 .0398.008.0793.024.1158-.012.025-.022.0511-.029.078-.026.0175-.05.0391-.071.0639.035.0847.045.1772.029.2672.012-.0684.028.0167.012 0 .033.0522.016.0355.033.0474.059-.0079.12-.0031.177.0142.024.0082.049.0146.073.0189h.015c.02.0012.041.0012.061 0l-.024.0237.088.0236c.012 0 .019-.0284.031-.0425h.03c.052-.0001.104-.0106.152-.0307.011.0086.023.0165.035.0236.044.0284.095.0438.147.0449.497 0 1.23.0142 2.011.0283l1.312.0214h.66c.618 0 1.254-.0166 1.812-.0308.258 0 .494-.0142.698-.0166.038-.0021.075-.0117.109-.0284.342-.1666.65-.396.908-.6765.041-.0438.066-.1006.071-.1607.036-.645.024-1.2917-.036-1.9349.213-.4352.154-.8751.083-1.3814z"/><path d="m157.056 20.8695c-.107-.7481-.126-1.5065-.054-2.2589.002-.0125.002-.0253 0-.0378v-.123c-.066-1.7835-.137-3.6284 0-5.2038.084-.7864.08-1.5799-.015-2.3653-.12-.99009-.115-1.99156.017-2.98027.006-.02969.006-.0602 0-.08989-.327-1.65573-.329-2.92118 0-3.96429.003-.02511.003-.05057 0-.07569 0-.43758-.022-.79237-.035-1.05493 0-.1088-.014-.20578-.017-.2862-.002-.0623-.026-.12178-.068-.16794-.144-.15748-.318-.28524-.512-.37609-.042-.01905-.088-.02795-.135-.02601-1.172.12892-2.357.11701-3.528-.03549h-.048c-1.036.0142-2.299 0-3.144 0h-.472c-.039-.00086-.078.00699-.113.02295-.035.01598-.066.03966-.091.0693-.094.1248-.179.256-.255.39265l-.014.02365c-.021.03419-.043.06663-.068.09698.036.31397.052.63005.047.94613.001.01652.001.03315 0 .04967.038.3075.054.62208.068.91065.033.88936 0 1.78818-.028 2.63261-.015.31222-.021.62681-.036.94612 0 .4163-.025.83497-.043 1.25127-.016.41628-.045.87282-.068 1.30802-.035.5937-.07 1.2087-.09 1.8166 0 .2673-.019.473-.038.6718-.002.0383.003.0768.015.1135.2.557.244 1.1582.128 1.7385-.008.0091-.014.0186-.019.0283-.026.05-.04.1057-.04.162 0 .0565.014.1122.04.1622.027 1.5161-.748 2.6846-1.498 3.8152-.163.2365-.322.4873-.473.7238-1.277 1.0455-2.715 1.5776-4.802 1.7692-1.965-.2625-3.465-.5416-4.795-1.7574l-.176-.2223c-1.031-1.2725-1.916-2.3654-1.751-4.3924.004-.0251.004-.0506 0-.0758.006-.0343.006-.0696 0-.104-.319-1.7007.374-3.3564 1.892-4.5414l.035-.0308c.777-.86097 2.367-1.77872 4.472-1.77872h.283c1.727.18922 3.193.65046 4.239 1.33167.036.02584.08.04061.125.04258.178 0 .358.03075.533.04731.056.00591.113-.00653.162-.03549.176-.103.32-.25182.416-.43049.019-.03345.03-.07066.032-.1088.021-.49672.042-1.03128.023-1.56348-.013-.43758-.052-.87753-.085-1.30329-.016-.1774-.033-.3548-.045-.5322v-.10171c-.055-.58882-.076-1.18034-.063-1.77163.005-.02809.005-.05706 0-.08515-.043-.14665-.09-.29094-.14-.43759-.008-.02031-.018-.03943-.03-.05676-.334-.49426-.732-.94206-1.184-1.33167-.026-.02337-.056-.04179-.089-.05442-.617-.218-1.247-.39343-1.887-.5251-.15-.0473-.299-.08987-.455-.12772-1.318-.3021-2.677-.38204-4.022-.23654-1.626-.07667-3.246.23296-4.73.90356-1.418.47307-2.313 1.18267-3.363 2.01525-.252.20105-.514.4092-.798.62918-.012.00739-.025.01699-.035.02839-.132.14428-.284.29803-.442.45887-.65.66465-1.462 1.49251-1.679 2.26361-.204.54167-.49 1.18267-.741 1.74798-.25.52566-.47 1.06506-.66 1.61556-.038.1821-.092.395-.152.6339-.236.965-.557 2.247-.377 3.1766-.043.0474-.066.1074-.069.1703.006.0674.028.1326.061.1915.034.059.079.1106.133.1515.291.7805.3 1.6036.305 2.3392-.029.506.025 1.0133.159 1.502.018.1183.035.2365.051.3525.129.8752.27 1.8663 1.306 3.0584.324.3974.61.7876.889 1.1638.367.5197.762 1.0195 1.184 1.4972.221.2129.432.4281.636.6386.922.9462 1.795 1.8449 3.535 2.0413.892.5014 1.961.5936 3.095.6906.579.0498 1.182.0994 1.766.2081.386.074.785.0587 1.164-.0448h.549c.732.0002 1.462-.0935 2.171-.2792 1.555-.1095 3.085-.4565 4.535-1.0288.104.0141.212.026.329.0496.045.1235.067.254.067.3855l-.019.1112c-.032.1845-.063.3667-.101.5488-.335.4249-.594.9051-.764 1.4191-.156.4281-.265.7096-.631.9461-.016.0083-.031.0195-.044.0332-.486.434-1.046.7762-1.655 1.01-.287.1116-.562.2527-.821.4211-.302.0307-.745.1159-1.256.2175-.65.1531-1.313.2544-1.979.3027-.08.0038-.159-.0026-.237-.0188-.045-.0145-.095-.0145-.142 0-.452.1098-.916.1646-1.381.1632-1.272 0-2.407-.4045-3.505-.7947l-.147-.0544h-.029c-1.461-.3454-2.57-.9249-3.744-1.5375-.049-.0264-.106-.0355-.161-.026-.375.0559-.74.1634-1.085.3192-.046.0209-.086.0545-.114.097l-.016.0237c-.381.589-.946 1.4736-1.126 2.4197-.249.5156-.499 1.0076-.722 1.4405-.145.2768-.272.5323-.381.7498-.012.0276-.021.0572-.026.0876-.075.6527.35 1.1471.824 1.58.018.0189.041.0341.066.0449 1.111.4963 2.251.9268 3.412 1.2891.019.0034.039.0034.058 0 .741.1004 1.474.2505 2.195.4495.88.2391 1.775.4255 2.677.5581h.048c.521.0066 1.041.0445 1.559.1136.461.0609.925.0957 1.39.104.166 0 .328 0 .49-.0188.687.0052 1.375-.0359 2.057-.123.549-.0544 1.063-.1089 1.476-.1089.13 0 .237 0 .348.0166.056.0048.112-.0076.161-.0355.794-.4779 1.706-.7191 2.633-.6954.18 0 .373 0 .591.0189.027.0035.055.0035.082 0 .665-.1914 1.307-.4564 1.912-.79.276-.158.567-.2887.868-.3902.814-.0947 1.578-.906 2.129-1.4997.111-.1206.218-.2365.305-.3217 1.183-1.0454 2.545-2.8573 2.813-4.7826.236-1.23.472-2.4577.687-3.075.014-.048.014-.0987 0-.1467-.109-.4043 0-1.0312.108-1.6367.115-.6623.236-1.3459.125-1.9206-.007-.0274-.015-.0537-.029-.0782 0-.0448.024-.1111.037-.1678.144-.455.149-.942.018-1.4003.199-.66.132-1.2111.056-1.845z"/><path d="m189.721 17.2671c-.08-.5483-.12-1.1016-.12-1.6557.01-.8588-.082-1.7158-.277-2.5522-.237-1.3743-.473-2.6728-1.183-3.89806-.161-.53456-.537-1.02419-.934-1.54219-.428-.56059-.871-1.13772-1.03-1.76926.003-.00778.003-.01589 0-.02366-.385-1.03128-1.472-2.04128-2.996-2.75087l-.045-.01656c-.922-.23652-1.922-.79239-3.075-1.41919l-.535-.3004c-.024-.01291-.049-.02246-.075-.02838-.854-.16321-1.762-.26728-2.725-.378455-.622-.068595-1.264-.14192-1.892-.236532-.029-.007114-.059-.007114-.088 0-.591.111562-1.187.190526-1.787.236532-.797.049785-1.588.162895-2.367.338235h-.027l-.071.02839c-1.204.45414-2.574.96979-3.587 1.58476-.011.00735-.022.01609-.032.02603-.323.27201-.739.60079-1.183.94612-.632.47274-1.236.98215-1.807 1.52564-.946.82076-1.921 2.39371-2.298 3.2334-.303.6066-.553 1.23905-.746 1.88985-.182.5559-.389 1.1827-.672 1.8923-.019.0568-.019.1182 0 .175.132.4211-.075 1.4405-.263 2.337-.08.3974-.156.7782-.21 1.1163.03.0939.03.1948 0 .2887 0 .2365-.021.4541-.039.6812.022.1703.045.3855.077.6268.127 1.1117.321 2.7769.448 3.4817-.138 1.1047.769 3.1743 1.567 3.9383.566 1.1975 1.386 2.2572 2.403 3.1057.454.6482 1.547 1.457 3.25 2.4126l.028.0142.866.3666c.955.4326 1.936.804 2.938 1.1117.65.2839 1.481.3099 2.351.3407.669.0016 1.336.0625 1.994.1821.01.0022.018.0022.028 0 .144.0141.305.0236.488.0236.92-.0347 1.836-.1366 2.741-.3051.265-.0449.496-.0828.676-.1088.029-.002.057-.0101.08-.0237.459-.1939.934-.3466 1.42-.4565.665-.1395 1.309-.367 1.914-.6765 1.101-.7474 2.14-1.3955 2.779-1.7361.025-.0108.047-.0269.066-.0473.216-.2099.444-.4081.681-.5937.159-.1254.317-.2554.473-.395.032-.0303.057-.0675.074-.1088l.042-.1159c.078-.1963.144-.3969.199-.6008.095-.4034.129-.8189.1-1.2323-.001-.0355-.01-.0703-.025-.1025-.015-.032-.036-.0607-.064-.0843-.564-.5139-1.091-1.0672-1.577-1.6558-.518-.5299-1.059-1.0384-1.61-1.5091-.024-.0213-.053-.0368-.083-.0449-.59-.1772-1.219-.1772-1.807 0-.037.0096-.072.0274-.1.052-.808.6535-1.689 1.2092-2.628 1.6558-1.11.6291-2.396.8736-3.659.6953l-.882-.1726c-1.53-.291-2.739-.5204-3.801-1.2726-1.005-.9461-1.557-1.5705-2.044-2.8597-.148-.229-.263-.4783-.338-.7403-.107-.286-.173-.5853-.198-.8894-.054-.5929-.069-1.1886-.045-1.7834 0-.2011 0-.3997 0-.5985 0-.3004 0-.6031.018-.9059.019-.3027.027-.5913.043-.887.021-.4116.047-.8373.05-1.2583-.013-.4853.074-.9681.252-1.4192.019-.0431.027-.0904.022-.1372.376-.9036 1.028-1.6865 1.776-2.53799 1.24-1.11407 2.772-1.40501 4.005-1.63917l.165-.03075c1.834.08515 2.947.7096 4.144 1.70067.598.52984 1.2 1.55404 1.571 2.68224.054.3821.054.7699 0 1.152-.233.1745-.489.314-.761.4139-.19-.0143-.389-.0308-.592-.0568-.028-.0071-.057-.0071-.086 0-.334.056-.672.0798-1.011.071-.403 0-.869-.0166-1.359-.0355-.655-.026-1.339-.0544-2.002-.045h-.045c-.469.0868-.944.1271-1.42.1207-.454 0-.925-.026-1.379-.0568l-.451-.026c-.037-.0016-.073.0038-.105.0159-.034.0122-.065.0309-.092.0551-.643.6079-.853 1.4191-.97 2.4362-.001.0134-.001.0269 0 .0403 0 .104 0 .2105.019.3097.033.2934.088.5819.14.8587.025.1396.049.272.075.4163.04.22.085.4566.114.7097.007.0527.031.1021.066.1418.334.3855.946.6434 1.389.7924.025.0034.05.0034.075 0 .516 0 1.074.0237 1.67.0427.474.0377.959.0591 1.455.0591s.934-.0167 1.419-.0355c.485-.019 1.001-.0379 1.566-.0379h.639c.768.0327 1.54.0256 2.308-.0213.473-.0237.974-.0497 1.448-.0497.42-.003.839.0224 1.256.0757h.045c1.014-.0473 2.026-.0709 3.01-.0709.493 0 .923 0 1.278.0142.02.0036.041.0036.061 0 .454-.0739.882-.2546 1.251-.5275.031-.0254.055-.0574.071-.0934.017-.036.025-.0752.024-.1147v-.0805c-.031-.5279.003-1.0578.1-1.5777.001-.0287-.001-.0576-.01-.0851z"/></g></svg>