<svg width="190" height="40" viewBox="0 0 190 40" fill="none" xmlns="http://www.w3.org/2000/svg">
<g clip-path="url(#clip0_13_307)">
<path d="M30.4735 16.0632C30.4657 15.9546 30.4196 15.8524 30.3435 15.7746C30.2867 15.3395 30.2393 14.9255 30.1921 14.5234C30.089 13.4622 29.9207 12.4085 29.6882 11.3681C29.6858 11.3495 29.6795 11.3317 29.6693 11.316C29.5818 11.1221 29.4896 10.9045 29.3855 10.6277C28.8888 8.16652 27.7 5.89822 25.9586 4.08941C24.2172 2.2806 21.9957 1.00641 19.5552 0.416616C18.3578 0.128916 17.1297 -0.0108923 15.8983 0.000319235C14.0918 0.0242716 12.292 0.2247 10.5244 0.598746C9.00176 0.899109 7.53922 1.44896 6.19584 2.22609L6.02081 2.28995C5.37271 2.52649 4.75536 2.74646 4.54484 3.23609L4.47152 3.28339C4.22811 3.45562 4.00997 3.66102 3.82342 3.89364L3.28413 4.34779C3.07361 4.52519 2.88438 4.6813 2.71882 4.82085C2.58191 4.84358 2.44361 4.85701 2.30488 4.86106C2.10406 4.55826 1.83089 4.31031 1.51013 4.13964C1.46386 4.10437 1.41061 4.07939 1.35391 4.06633C1.29721 4.05328 1.23839 4.05246 1.18135 4.06395C1.12494 4.06895 1.07063 4.08774 1.02319 4.11868C0.975758 4.14961 0.936659 4.19174 0.909341 4.24135C0.862813 4.31705 0.842838 4.40611 0.852573 4.49444C0.91603 5.40296 0.923928 6.31453 0.876227 7.22403C0.836016 8.48238 0.793439 9.78094 1.05126 11.0511C1.06213 11.1071 1.09123 11.1579 1.13403 11.1955C1.17683 11.2332 1.2309 11.2556 1.28779 11.2593C3.38111 11.4627 5.08414 11.5715 6.66891 11.5904C7.47074 11.536 8.25604 11.4651 9.00584 11.3799C9.08847 11.3689 9.16563 11.3325 9.22664 11.2757C9.28767 11.2189 9.32953 11.1446 9.34646 11.0629C9.36654 10.9847 9.36108 10.9021 9.33087 10.8272C9.30066 10.7523 9.24727 10.689 9.17852 10.6466C9.08391 10.5851 8.98692 10.5237 8.88994 10.4669C8.77888 10.3237 8.64646 10.1984 8.49731 10.0955C8.39678 9.98005 8.32182 9.84464 8.27733 9.69815C8.71058 9.33171 9.19609 9.03195 9.71781 8.80879L9.97089 8.68342C10.7368 8.32496 11.5272 8.02144 12.3362 7.77514L12.587 7.76095C13.1182 7.76031 13.649 7.72792 14.1765 7.66397C16.1231 7.78696 17.3933 8.18197 18.8432 9.11627C19.5245 9.83307 20.0982 10.645 20.5462 11.5265C20.6867 11.9261 20.7352 12.3522 20.6882 12.7731C20.5598 12.8859 20.4212 12.9865 20.2742 13.0735H20.2363C19.6616 13.0995 18.945 13.1326 18.058 13.1326C17.4098 13.1326 16.7783 13.116 16.1278 13.0805H16.0971C15.4821 13.0805 14.86 13.0451 14.2616 13.012C13.6632 12.9789 13.0907 12.9434 12.5231 12.9434C12.0125 12.9394 11.5023 12.9757 10.9974 13.0521C10.669 13.0181 10.3389 13.004 10.0087 13.0096C9.51439 13.0096 8.95617 13.038 8.41452 13.0616C7.55353 13.1019 6.62869 13.135 5.99716 13.0924C5.12519 12.8921 4.23319 12.7921 3.33853 12.7944C2.57404 12.7943 1.81103 12.8615 1.05836 12.9954C1.00943 13.0049 0.963794 13.0269 0.925898 13.0592C0.617093 13.3333 0.360628 13.661 0.168994 14.0268C0.155499 14.0499 0.147413 14.0758 0.145341 14.1024L0.119323 14.268C0.0178891 14.7338 -0.0155725 15.2118 0.019979 15.6871C0.276129 17.0347 0.391074 18.4054 0.362951 19.7767C0.360699 19.7949 0.360699 19.8131 0.362951 19.8312C0.642294 21.1794 1.05102 22.4974 1.58346 23.7671C1.77742 24.9071 2.46572 25.6735 3.07598 26.35C3.32656 26.6149 3.55517 26.8996 3.75956 27.2015C3.76687 27.2156 3.77646 27.2284 3.78794 27.2394C4.35097 27.8424 4.97568 28.3846 5.65182 28.8573C6.11363 29.1865 6.55371 29.5452 6.96931 29.9311C6.98759 29.9489 7.00829 29.964 7.03079 29.9761C7.31701 30.118 7.59848 30.2789 7.88468 30.4491C8.92542 31.0239 10.0135 31.6176 11.3002 31.7855C12.7801 32.1716 14.3007 32.3796 15.8298 32.4053C16.0663 32.4053 16.3265 32.4053 16.5631 32.3816H16.5915L16.899 32.3296C18.1768 32.077 19.4692 31.9049 20.7686 31.8139C20.8247 31.8088 20.8781 31.7874 20.9223 31.7524C21.7502 31.0641 22.3817 30.9151 23.1765 30.7259C23.4935 30.6501 23.8198 30.5721 24.1888 30.4539C24.2126 30.4439 24.2356 30.4321 24.2575 30.4184C25.524 29.5212 26.743 28.5589 27.9095 27.535C28.0183 27.632 28.1295 27.7266 28.2383 27.8189C28.4181 27.9726 28.605 28.1287 28.7752 28.292C28.8662 28.3791 28.9875 28.4275 29.1135 28.4268C29.2497 28.4271 29.3813 28.3775 29.4833 28.2873C29.5853 28.197 29.6507 28.0724 29.667 27.9371C29.7285 27.2063 29.7426 26.4683 29.7545 25.7564C29.7545 25.1886 29.7733 24.6044 29.8088 24.032C29.861 23.1876 29.9177 22.2344 29.4966 21.3876C29.4258 21.2458 29.3205 21.1239 29.1902 21.0334C29.0601 20.9429 28.9092 20.8866 28.7516 20.8696H28.7042H28.437H28.4015H28.3683C28.3402 20.8744 28.3115 20.8744 28.2832 20.8696H28.2407L26.1118 20.9169C25.3123 20.95 24.5295 20.9784 23.7466 20.9831C23.6851 20.9853 23.6245 20.9972 23.5668 21.0186C23.4367 21.0186 23.3113 21.0399 23.212 21.0518C22.8067 21.0525 22.4025 21.0945 22.0057 21.1771C21.982 21.1771 21.9655 21.1771 21.9488 21.1771C21.8947 21.1631 21.8375 21.1669 21.7856 21.1877C21.7337 21.2085 21.6898 21.2454 21.6603 21.293C21.6235 21.3486 21.6022 21.4131 21.5988 21.4799C21.5486 21.5895 21.5365 21.7129 21.5643 21.8302C21.5922 21.9477 21.6585 22.0525 21.7526 22.1279L22.0625 22.381C22.1972 22.4921 22.3321 22.6175 22.474 22.7192C21.856 23.1821 21.1907 23.5786 20.4895 23.9019C20.1816 24.0434 19.8816 24.2014 19.5907 24.375C19.0973 24.4867 18.5972 24.5658 18.0935 24.6115C17.4917 24.6664 16.8953 24.7692 16.31 24.919C14.4911 24.9569 13.3297 24.4696 11.6432 23.4573C10.7336 22.6028 10.0091 21.5706 9.51439 20.4249C9.49073 20.0725 9.58062 19.8265 9.76984 19.7153C9.91914 19.644 10.0788 19.5969 10.2429 19.5758H10.302L10.5386 19.5591C11.208 19.5142 12.0382 19.4599 13.0151 19.4599C13.4526 19.4599 13.8878 19.4599 14.3066 19.493C14.8742 19.5355 15.5932 19.5545 16.4945 19.5545C17.4406 19.5545 18.4625 19.5331 19.4251 19.5095C19.8012 19.5095 20.2127 19.4954 20.6432 19.4835C21.3717 19.4669 22.1263 19.4456 22.8832 19.4456C23.5006 19.4456 24.028 19.4599 24.4987 19.4883C25.821 19.5426 27.0012 19.5497 27.7581 19.5497C28.2951 19.5497 28.7633 19.5497 29.1371 19.5379C29.167 19.5371 29.1966 19.5316 29.2246 19.5214C29.5153 19.4088 29.7891 19.2568 30.0383 19.0696C30.0741 19.0422 30.1023 19.006 30.1201 18.9646C30.138 18.9233 30.1448 18.8779 30.14 18.833C30.1206 18.4462 30.1785 18.0595 30.3103 17.6953C30.4381 17.2364 30.5705 16.7634 30.4073 16.3353C30.4563 16.2534 30.4793 16.1585 30.4735 16.0632Z" fill="#E9413C"/>
<path d="M60.1914 17.0449C60.3313 15.4995 60.3313 13.9447 60.1914 12.3994C60.1914 12.3473 60.1914 12.3024 60.1914 12.2693V12.2385C60.2647 10.8714 60.2789 9.28186 59.5149 7.68526C59.2764 7.11265 58.9631 6.57419 58.5829 6.08394C58.1786 5.5139 57.7953 4.9746 57.6108 4.33124C57.6002 4.29144 57.5799 4.25488 57.5517 4.2248C56.5748 3.19115 55.6594 2.42715 54.3679 2.05816C52.8353 1.25868 51.5296 1.02451 50.1269 1.27524C48.2938 1.38878 46.9906 1.66315 45.9143 2.1646C45.3196 2.23709 44.7318 2.35813 44.1569 2.52649C44.1149 2.53648 44.0764 2.55774 44.0457 2.58799C44.0102 2.62348 43.9771 2.65423 43.9251 2.70863C43.8731 2.76303 43.7856 2.85528 43.7241 2.94515C43.7098 2.96463 43.6987 2.98616 43.6909 3.00903C43.6697 3.04214 43.6531 3.08235 43.6342 3.11783C43.6209 3.14378 43.6121 3.17175 43.6082 3.20061C43.6009 3.2147 43.5962 3.22989 43.5939 3.24555L43.5797 3.2834C43.5656 3.32111 43.5607 3.36168 43.5656 3.40166C43.6034 3.66895 43.6342 3.95988 43.6531 4.24609C43.7074 5.11889 43.7004 5.98933 43.6909 6.88105C43.6909 7.19091 43.6909 7.50786 43.6909 7.82719C43.6909 8.24585 43.6909 8.66451 43.6909 9.07608C43.6909 9.07608 43.6909 9.10683 43.6909 9.11393C43.6907 9.1478 43.6973 9.18138 43.7103 9.21266C43.7233 9.24395 43.7424 9.2723 43.7666 9.29605C43.8019 9.33336 43.8329 9.37464 43.8588 9.41905C43.8944 9.487 43.9356 9.55188 43.9818 9.613C44.0103 9.64784 44.0466 9.67558 44.0876 9.69404C44.1287 9.71251 44.1734 9.72121 44.2184 9.71945H44.2302L44.4549 9.7431C44.5017 9.74788 44.5489 9.74055 44.5921 9.72181C45.2978 9.43103 46.0483 9.2638 46.8108 9.22746C48.7551 9.43324 49.4671 9.71945 50.2476 10.6041C50.9998 11.704 51.6668 12.8535 51.4988 14.7954C51.4923 14.8616 51.5118 14.9279 51.5533 14.9799C51.5702 15.2788 51.5646 15.5784 51.5367 15.8764C51.5131 16.3045 51.4823 16.8367 51.5012 17.3381C51.3996 18.6201 51.4349 20.0511 51.4681 21.565C51.4799 21.9884 51.4894 22.4165 51.4964 22.8611C51.5887 24.2378 51.5627 25.7705 51.5438 27.1187C51.5438 27.5374 51.5296 27.9443 51.5272 28.3369C51.4657 28.7745 51.4232 29.2617 51.4042 29.7041C51.4007 29.7331 51.4007 29.7625 51.4042 29.7916C51.5273 30.2564 51.7537 30.6873 52.0666 31.0522C52.0897 31.0778 52.1178 31.0982 52.1491 31.1125C52.1804 31.1267 52.2143 31.1344 52.2487 31.1351C52.7217 31.1564 53.3627 31.1824 54.1007 31.1824C54.7204 31.1824 55.3094 31.1635 55.8723 31.1256C56.6053 31.0169 57.3453 30.9631 58.0863 30.9647C58.4008 30.9647 58.7037 30.9648 58.9874 30.9908C59.0243 30.9919 59.0609 30.9871 59.0963 30.9766C59.5647 30.8194 59.9686 30.5128 60.2458 30.1038C60.2768 30.0551 60.2924 29.9982 60.2908 29.9406L60.2624 29.529C60.1659 28.3759 60.1359 27.2181 60.1724 26.0615C60.2348 25.4414 60.2277 24.8161 60.1512 24.1976C60.0448 23.3526 60.0448 22.4975 60.1512 21.6525C60.5888 19.8997 60.4823 18.5421 60.1914 17.0449Z" fill="#E9413C"/>
<path d="M42.2955 9.56813C42.3074 8.98625 42.3192 8.38547 42.2955 7.79177C42.2695 7.36838 42.2222 6.94025 42.1772 6.52868C42.1552 6.33945 42.1362 6.15023 42.1205 5.961L42.0969 5.74103C42.0046 4.86823 41.8935 3.78018 42.1371 2.97833C42.1479 2.9443 42.1514 2.90838 42.1472 2.8729C42.1431 2.83744 42.1316 2.80324 42.1134 2.77255C42.0971 2.73938 42.0727 2.71089 42.0425 2.68977C42.0425 2.57149 42.0425 2.46742 42.0425 2.37518C42.0381 2.3117 42.0122 2.25163 41.9691 2.20487C41.8612 2.09339 41.7367 1.99924 41.6001 1.92577C41.4744 1.85452 41.3431 1.7936 41.2075 1.74363C41.1754 1.72989 41.1406 1.72344 41.1057 1.7247C40.8692 1.7247 40.5689 1.74127 40.2259 1.75545C39.592 1.78384 38.8067 1.81459 37.9717 1.81459H37.6714C37.2385 1.79803 36.8056 1.79094 36.3467 1.79094C35.7176 1.79094 35.1641 1.80513 34.736 1.81933L34.0619 1.83352C34.0056 1.83784 33.9512 1.85569 33.9034 1.88555C33.8269 1.93434 33.7549 1.98974 33.6881 2.05113C33.5767 2.16668 33.4776 2.2935 33.3925 2.42958C33.3649 2.47182 33.3501 2.52108 33.3499 2.57149C33.3499 2.97833 33.3499 3.60278 33.3499 4.33839C33.3499 5.01488 33.3357 5.78597 33.331 6.57363C33.3307 6.60514 33.3362 6.63642 33.3475 6.66588C33.6692 7.53394 33.5651 8.46352 33.4564 9.44749C33.3807 10.0279 33.3412 10.6125 33.338 11.1978C33.4722 12.9425 33.4722 14.6948 33.338 16.4394C33.2671 17.052 33.1796 17.5748 33.1015 18.036C32.865 19.4126 32.7089 20.3256 33.338 21.785C33.4439 23.3009 33.4439 24.8224 33.338 26.3383C33.337 26.3509 33.337 26.3635 33.338 26.3761C33.4137 27.7646 33.4469 29.1034 33.4374 29.9501C33.4361 29.9721 33.4361 29.9943 33.4374 30.0164C33.5131 30.391 33.6899 30.7378 33.9482 31.0193C33.9961 31.0629 34.0566 31.0903 34.121 31.0973L34.4852 31.1139C34.9582 31.1423 35.6254 31.1778 36.3207 31.1778C36.8316 31.1778 37.281 31.1588 37.6902 31.121C38.3455 31.0879 39.0597 31.0713 39.8072 31.0713C40.3512 31.0713 40.777 31.0713 41.0395 31.0879C41.0679 31.0911 41.0964 31.0911 41.1247 31.0879C41.2335 31.0524 41.3446 31.0169 41.4511 30.9766C41.4812 30.9705 41.5095 30.9575 41.5339 30.9389C41.6367 30.8624 41.7304 30.7743 41.813 30.6763L41.9005 30.5769C41.9416 30.5288 41.9642 30.4676 41.9644 30.4043C41.9644 30.0093 41.981 29.4203 41.9999 28.7983L42.0141 28.3251C42.0152 28.3086 42.0152 28.292 42.0141 28.2755C41.8461 27.2963 41.9076 25.87 41.9691 24.3609C41.9904 23.857 42.0117 23.3438 42.0259 22.84C42.0259 22.1729 42.0614 21.5059 42.0945 20.8579C42.156 19.5758 42.2151 18.3648 42.0377 17.272C42.0637 15.6943 42.0566 15.0604 42.0377 14.786C42.0352 14.7534 42.0305 14.721 42.0235 14.689C41.8951 13.7944 42.0069 12.8818 42.3476 12.0446C42.3641 12.0075 42.3715 11.9669 42.3689 11.9264C42.3452 11.4864 42.3381 11.0299 42.3381 10.5355C42.2837 10.2044 42.2909 9.88744 42.2955 9.56813Z" fill="#E9413C"/>
<path d="M93.9023 18.5752C93.9023 18.0479 93.9236 17.4186 93.9568 16.754C94.0229 15.5122 94.0891 14.2302 93.8976 13.2486C94.1034 12.2504 94.0183 11.2665 93.933 10.3109C93.8349 9.50707 93.823 8.6951 93.8976 7.88877C93.9011 7.87081 93.9011 7.85233 93.8976 7.83437C93.8384 6.97576 93.855 5.88061 93.8715 4.91083C93.8715 4.54183 93.8858 4.18941 93.8858 3.87482C93.889 3.8497 93.889 3.82425 93.8858 3.79912C93.8574 3.71161 93.8314 3.62172 93.8054 3.52948C93.6374 2.97126 93.4505 2.33262 93.0721 1.84773C93.0475 1.81348 93.0146 1.786 92.9766 1.76781C92.9386 1.74962 92.8965 1.74131 92.8545 1.74366L92.055 1.77913C91.466 1.80516 90.8014 1.83591 90.2503 1.83591C89.983 1.83591 89.7606 1.83591 89.6069 1.81462C88.9664 1.72867 88.3206 1.68836 87.6744 1.69398C87.0334 1.69398 86.4634 1.72473 86.1015 1.75076C86.0445 1.75206 85.9899 1.7739 85.9478 1.81226C85.5723 2.15785 85.2969 2.59826 85.1506 3.08716C85.1424 3.12536 85.1424 3.16486 85.1506 3.20306C85.1695 3.36076 85.1838 3.51213 85.1931 3.65721V3.70688C85.2523 4.54893 85.2476 5.39572 85.2358 6.33476C85.2358 6.64225 85.2358 6.94974 85.2358 7.25724C85.2358 7.68062 85.2358 8.10638 85.2215 8.53213C85.2074 8.9579 85.1955 9.39312 85.1814 9.82125C85.16 10.4244 85.134 11.0441 85.134 11.6544C85.134 11.8767 85.134 12.1061 85.108 12.3379C85.1033 12.3685 85.1033 12.3996 85.108 12.4302C85.2973 13.0546 85.2996 13.7761 85.3068 14.6867V14.7269C85.2704 14.8512 85.2704 14.9834 85.3068 15.1077C85.4166 15.9714 85.2951 16.8486 84.9548 17.6499C84.6144 18.4511 84.0674 19.1476 83.3695 19.6681C81.6854 21.0872 80.129 21.6691 78.5679 21.4657C78.5443 21.4634 78.5205 21.4634 78.497 21.4657C78.2351 21.5014 77.9711 21.5196 77.7069 21.5201C76.9543 21.5357 76.2078 21.3814 75.523 21.0685C74.8383 20.7556 74.233 20.2922 73.7521 19.713C72.515 18.2749 71.8599 16.728 71.8149 15.1125C71.8316 15.0457 71.8316 14.9759 71.8149 14.909C71.7724 13.0167 72.3991 11.5361 73.7285 10.3605C73.7453 10.3457 73.7604 10.3291 73.7734 10.3109C74.7195 8.90586 76.3753 8.76157 78.284 8.59127L78.5348 8.56762C79.9139 8.54764 81.2709 8.91476 82.4518 9.62729C82.4976 9.65651 82.5515 9.67063 82.6058 9.66767C82.6601 9.6647 82.7121 9.64478 82.7545 9.61073C82.8255 9.55632 82.8941 9.4972 82.958 9.43806C83.153 9.22461 83.3184 8.98595 83.4499 8.72846L83.5044 8.62912C83.5276 8.59147 83.54 8.54805 83.5398 8.50376C83.5398 8.00231 83.5398 7.61912 83.5161 7.26196C83.4854 6.82437 83.431 6.38916 83.3766 5.96576C83.3554 5.78836 83.3316 5.6086 83.3128 5.42883L83.2985 5.30583C83.1998 4.64208 83.1618 3.97071 83.185 3.30005C83.1855 3.25533 83.1766 3.21101 83.159 3.16995C83.039 2.92765 82.8965 2.69718 82.7333 2.48165C82.6944 2.43197 82.6404 2.39627 82.5795 2.37993L82.3926 2.33736L82.097 2.2664C81.6641 2.17415 81.2313 2.06298 80.7748 1.94471L80.446 1.8572C80.1701 1.759 79.8848 1.69002 79.5945 1.65141C78.7713 1.44347 77.9243 1.34486 77.0754 1.35811C76.7939 1.33682 76.5006 1.31553 76.2003 1.28006H76.1624C75.8596 1.31553 75.5593 1.33682 75.2541 1.35575C74.4621 1.39225 73.6753 1.50071 72.903 1.6798C71.7956 1.81227 70.7388 2.21876 69.828 2.86246C69.0711 3.05641 67.9358 3.75182 67.1174 4.86588C66.6154 5.31702 66.182 5.83895 65.8306 6.41517C65.5941 6.76051 65.3576 7.12477 65.0501 7.49614C65.02 7.53165 65.0011 7.57526 64.9956 7.6215C64.9105 8.21755 64.3121 9.7763 63.6971 10.8147C63.6844 10.8352 63.6748 10.8575 63.6688 10.8809C63.34 12.0636 63.0018 13.3101 63.1271 14.7742C63.1196 14.7802 63.1133 14.7874 63.1081 14.7955C63.071 14.8499 63.0513 14.9142 63.0514 14.98C63.0536 15.0784 63.0849 15.1737 63.1413 15.2544C63.1616 16.5497 63.3339 17.8381 63.6545 19.0934C63.6598 19.1319 63.6763 19.1681 63.7019 19.1974C64.1211 19.7464 64.4048 20.3866 64.5298 21.066C64.6378 21.5435 64.7963 22.0081 65.0028 22.4521L65.0264 22.4922C65.3553 22.9654 65.665 23.3367 65.9915 23.7317C66.3179 24.1267 66.6869 24.5642 67.0748 25.1296C67.0951 25.1559 67.1199 25.1782 67.1481 25.1959C67.5148 25.4324 67.9003 25.7091 68.3119 25.9954C69.3171 26.7049 70.3603 27.4145 71.2566 27.8309C72.068 28.214 72.8911 28.2897 73.7639 28.3677C74.4913 28.5186 75.2265 28.6292 75.966 28.6989L76.0465 28.7201L76.1293 28.7439H76.186C76.5243 28.7627 76.9075 28.7816 77.2835 28.7816C77.3474 28.7816 77.416 28.7816 77.4704 28.7816C79.4604 28.829 81.4455 28.5632 83.353 27.994C83.4441 28.0141 83.5385 28.0141 83.6298 27.994H83.6865C83.944 27.9266 84.2081 27.887 84.4741 27.8757C84.7934 27.8757 84.9141 27.9775 84.9733 28.0886C84.9401 28.2376 84.9046 28.3866 84.862 28.5451C84.8598 28.5656 84.8598 28.5862 84.862 28.6066C84.8313 29.373 84.2494 30.3026 83.4429 30.8631L83.4121 30.8869C82.6741 31.5964 81.6925 32.157 80.9781 32.3179H80.9333C80.0816 32.6646 79.1728 32.8491 78.2533 32.8619C77.9791 32.8621 77.7055 32.84 77.4349 32.7956H77.345C75.2541 32.9352 73.5605 32.7105 72.2928 32.1262L72.2218 32.105C70.8711 31.9161 69.579 31.4315 68.4373 30.6857C68.3958 30.6582 68.3474 30.6427 68.2976 30.6409C67.9273 30.6241 67.558 30.6937 67.2191 30.8442C67.1583 30.8722 67.1101 30.922 67.0843 30.9837C66.8903 31.4569 66.5284 32.3202 66.0199 33.3491C65.4811 34.0355 65.0709 34.8136 64.8088 35.6459C64.7959 35.6922 64.7959 35.7414 64.8088 35.7877C64.9046 36.2395 65.0681 36.674 65.2938 37.0769C65.3165 37.1217 65.3529 37.1582 65.3978 37.181C65.9095 37.4291 66.4374 37.6425 66.9779 37.8196C67.2144 37.9024 67.4509 37.9851 67.6283 38.0561C68.2704 38.3286 68.9353 38.544 69.6151 38.6995C70.0528 38.8154 70.4643 38.936 70.76 39.0259C71.7041 39.335 72.6829 39.5257 73.674 39.5936L74.1045 39.6385C74.1203 39.6409 74.1361 39.6409 74.1519 39.6385C74.6686 39.6227 75.1853 39.6729 75.6893 39.7875C76.0853 39.8739 76.4883 39.9237 76.8933 39.9365C77.1335 39.9395 77.3726 39.906 77.6029 39.8372C77.9859 39.9542 78.385 40.0101 78.7855 40.0028C79.5373 39.976 80.2844 39.8746 81.016 39.7C81.2076 39.6621 81.3921 39.6244 81.5648 39.5936C82.483 39.4961 83.3909 39.318 84.2778 39.0614C84.5025 39.0046 84.7273 38.9431 84.9733 38.884C85.9775 38.5836 86.9446 38.171 87.8565 37.654C88.7241 37.1936 89.5116 36.5962 90.1888 35.8847C91.5938 34.8771 92.3601 32.8406 92.9775 31.1872C93.1714 30.9365 93.2708 30.3759 93.4198 29.4557C93.4864 28.9865 93.5795 28.5214 93.6989 28.0626C93.9189 27.353 93.9141 26.44 93.9118 25.553C93.9118 25.1367 93.9118 24.7417 93.926 24.3704C93.9289 24.3122 93.9123 24.2547 93.8786 24.2071C93.8663 23.85 93.8829 23.4925 93.9283 23.138L93.9568 22.7856C94.2595 22.1375 94.1601 21.3664 94.049 20.4534C93.9461 19.8327 93.8971 19.2044 93.9023 18.5752Z" fill="#E9413C"/>
<path d="M123.731 26.9057C123.654 26.4656 123.627 26.0179 123.653 25.5717C123.657 25.5419 123.657 25.5117 123.653 25.4819C123.566 25.0263 123.566 24.5584 123.653 24.1029C123.734 23.5721 123.734 23.0322 123.653 22.5015C123.713 21.9855 123.705 21.4639 123.629 20.9499C123.55 20.4801 123.55 20.0005 123.629 19.5308C123.637 19.4964 123.637 19.4609 123.629 19.4266C123.523 18.8077 123.508 18.1766 123.585 17.5532C123.606 17.3167 123.629 17.0542 123.634 16.7799C123.634 16.4605 123.634 16.1554 123.62 15.8715C123.62 15.1997 123.601 14.5091 123.62 14.2891C123.64 14.2554 123.649 14.2169 123.648 14.178C123.708 12.0113 123.275 10.3414 122.889 8.86071C122.475 7.30639 121.634 5.89932 120.46 4.79945C119.277 3.51271 117.986 2.9545 116.427 2.37026C115.796 2.1109 115.133 1.9344 114.457 1.84516C114.22 1.80259 113.969 1.75764 113.671 1.69851C113.297 1.66201 112.92 1.64622 112.543 1.6512C111.896 1.66937 111.248 1.62182 110.611 1.50929C110.581 1.50354 110.551 1.50354 110.521 1.50929C110.111 1.56155 109.697 1.58605 109.284 1.58261H108.839H108.413C107.988 1.57739 107.563 1.60745 107.143 1.67249C106.752 1.73931 106.357 1.77725 105.96 1.78602C105.277 1.81677 104.629 1.84752 104.222 2.15501C102.474 2.39155 101.384 2.8859 100.229 3.4181C100.185 3.438 100.147 3.46997 100.121 3.51035C99.8891 3.8437 99.7067 4.20851 99.5789 4.59366C99.5589 4.65111 99.5589 4.71362 99.5789 4.77106C99.873 5.55034 100.06 6.36594 100.135 7.19552C100.133 7.21204 100.133 7.22867 100.135 7.2452C100.402 8.19132 100.7 9.18002 100.913 9.80684C100.932 9.86376 100.971 9.91224 101.022 9.94403L101.152 10.0292C101.388 10.1966 101.641 10.3393 101.906 10.4549C101.952 10.4747 102.002 10.4796 102.051 10.4691C102.707 10.3326 103.349 10.1322 103.967 9.8707C104.373 9.70986 104.799 9.54429 105.293 9.39764C106.206 9.08641 107.168 8.94609 108.132 8.98371C108.392 8.98371 108.662 8.98371 108.936 8.98371H109.367C109.627 8.96715 109.88 8.96005 110.116 8.96005C111.834 8.96005 113.03 9.38345 113.783 10.2681C114.2 10.6849 114.543 11.1696 114.797 11.7015C114.88 12.0758 114.876 12.4643 114.786 12.8369C114.776 12.8712 114.774 12.9072 114.778 12.9426C114.783 12.978 114.795 13.012 114.814 13.0426C115.098 13.5156 115.095 14.1709 115.091 14.6155C115.076 15.3372 115.019 16.0574 114.923 16.7727C114.887 17.0424 114.856 17.3144 114.826 17.584C114.786 17.9151 114.75 18.244 114.703 18.5751C114.655 18.9062 114.603 19.2847 114.549 19.6395C114.473 20.1291 114.395 20.6376 114.341 21.1391C114.292 21.6554 114.169 22.1619 113.977 22.6435C113.74 23.7906 113.016 24.8006 111.848 25.023C110.988 25.235 110.115 25.3875 109.234 25.4795C109.035 25.4629 108.856 25.4535 108.69 25.444C107.633 25.3825 107.193 25.3541 106.195 24.6209L105.958 24.4104C105.213 23.7007 104.863 23.3885 105.026 22.3573C105.075 22.3085 105.109 22.2465 105.123 22.1789C105.138 22.1112 105.132 22.0409 105.107 21.9764C105.095 21.954 105.081 21.9333 105.064 21.9149C105.196 20.7701 105.407 19.9659 106.363 19.4479C106.843 19.3664 107.314 19.2324 107.765 19.0481C108.555 18.769 109.452 18.4521 110.438 18.4331C110.846 18.3997 111.256 18.4117 111.661 18.4686C111.695 18.4757 111.731 18.4757 111.765 18.4686H111.808C111.879 18.4497 111.945 18.4307 112.011 18.4071C112.021 18.4046 112.031 18.4007 112.039 18.3954C112.371 18.2341 112.645 17.9749 112.825 17.6526C112.846 17.6179 112.858 17.5776 112.858 17.5367V17.48C112.858 17.4302 112.858 17.3806 112.858 17.3309C112.858 16.9501 112.839 16.5669 112.813 16.2002C112.813 16.0631 112.794 15.9259 112.789 15.7887V15.6705C112.745 15.1801 112.749 14.6865 112.801 14.1969C112.809 14.1497 112.803 14.1014 112.784 14.0574L112.773 14.0266C112.751 13.9679 112.723 13.9116 112.69 13.8586L112.666 13.8207C112.65 13.7912 112.628 13.7647 112.602 13.7427L112.564 13.7049L112.541 13.6812L112.501 13.6481C112.483 13.62 112.461 13.5951 112.434 13.5747C112.282 13.4687 112.124 13.3709 111.961 13.2815C111.933 13.2667 111.903 13.2564 111.871 13.2507C111.629 13.218 111.385 13.2021 111.141 13.2035C110.949 13.2035 110.757 13.2035 110.561 13.2176C110.365 13.2319 110.173 13.2342 109.974 13.2342C109.508 13.2421 109.043 13.1791 108.595 13.0474C108.557 13.0377 108.518 13.0377 108.48 13.0474C107.793 13.1446 107.101 13.2046 106.408 13.2271C105.428 13.2767 104.515 13.3265 103.758 13.6055C102.42 13.9459 101.155 14.5261 100.024 15.318C98.9331 15.8905 98.427 16.7372 97.7221 17.9199L97.5187 18.2629C97.5135 18.2721 97.5087 18.2816 97.5045 18.2912C96.8351 19.8027 96.5419 21.1131 96.6294 22.2011C96.6065 22.2201 96.5859 22.2415 96.5679 22.265C96.5915 22.433 96.6151 22.6009 96.6294 22.7711C96.6294 22.7711 96.6435 22.7878 96.6554 22.7901C96.608 24.3205 96.9131 25.7041 97.495 26.525C97.883 27.0547 98.2259 27.4876 98.5571 27.9086C98.8882 28.3298 99.2217 28.7531 99.6262 29.2948C100.683 30.5673 101.57 30.7684 102.9 31.0711C104.129 31.4372 105.402 31.6346 106.684 31.6578H106.921C109.09 31.6578 110.436 31.2201 111.959 30.6478C112.55 30.49 113.1 30.2078 113.572 29.8199L113.686 29.7867C114.226 29.6932 114.779 29.6932 115.32 29.7867C115.32 30.0682 115.32 30.2598 115.32 30.4373C115.32 30.4771 115.328 30.5166 115.344 30.5531C115.332 30.5781 115.322 30.6042 115.315 30.6311C115.289 30.6486 115.265 30.6702 115.244 30.695C115.279 30.7797 115.289 30.8722 115.273 30.9622C115.285 30.8938 115.301 30.9789 115.285 30.9622C115.318 31.0144 115.301 30.9977 115.318 31.0096C115.377 31.0017 115.438 31.0065 115.495 31.0238C115.519 31.032 115.544 31.0384 115.568 31.0427H115.583C115.603 31.0439 115.624 31.0439 115.644 31.0427L115.62 31.0664L115.708 31.09C115.72 31.09 115.727 31.0616 115.739 31.0475H115.769C115.821 31.0474 115.873 31.0369 115.921 31.0168C115.932 31.0254 115.944 31.0333 115.956 31.0404C116 31.0688 116.051 31.0842 116.103 31.0853C116.6 31.0853 117.333 31.0995 118.114 31.1136L119.426 31.135C119.637 31.135 119.859 31.135 120.086 31.135C120.704 31.135 121.34 31.1184 121.898 31.1042C122.156 31.1042 122.392 31.09 122.596 31.0876C122.634 31.0855 122.671 31.0759 122.705 31.0592C123.047 30.8926 123.355 30.6632 123.613 30.3827C123.654 30.3389 123.679 30.2821 123.684 30.222C123.72 29.577 123.708 28.9303 123.648 28.2871C123.861 27.8519 123.802 27.412 123.731 26.9057Z" fill="#E9413C"/>
<path d="M157.056 20.8695C156.949 20.1214 156.93 19.363 157.002 18.6106C157.004 18.5981 157.004 18.5853 157.002 18.5728V18.4498C156.936 16.6663 156.865 14.8214 157.002 13.246C157.086 12.4596 157.082 11.6661 156.987 10.8807C156.867 9.89061 156.872 8.88914 157.004 7.90043C157.01 7.87074 157.01 7.84023 157.004 7.81054C156.677 6.15481 156.675 4.88936 157.004 3.84625C157.007 3.82114 157.007 3.79568 157.004 3.77056C157.004 3.33298 156.982 2.97819 156.969 2.71563C156.969 2.60683 156.955 2.50985 156.952 2.42943C156.95 2.36713 156.926 2.30765 156.884 2.26149C156.74 2.10401 156.566 1.97625 156.372 1.8854C156.33 1.86635 156.284 1.85745 156.237 1.85939C155.065 1.98831 153.88 1.9764 152.709 1.8239H152.661C151.625 1.8381 150.362 1.8239 149.517 1.8239H149.045C149.006 1.82304 148.967 1.83089 148.932 1.84685C148.897 1.86283 148.866 1.88651 148.841 1.91615C148.747 2.04095 148.662 2.17215 148.586 2.3088L148.572 2.33245C148.551 2.36664 148.529 2.39908 148.504 2.42943C148.54 2.7434 148.556 3.05948 148.551 3.37556C148.552 3.39208 148.552 3.40871 148.551 3.42523C148.589 3.73273 148.605 4.04731 148.619 4.33588C148.652 5.22524 148.619 6.12406 148.591 6.96849C148.576 7.28071 148.57 7.5953 148.555 7.91461C148.555 8.33091 148.53 8.74958 148.512 9.16588C148.496 9.58216 148.467 10.0387 148.444 10.4739C148.409 11.0676 148.374 11.6826 148.354 12.2905C148.354 12.5578 148.335 12.7635 148.316 12.9623C148.314 13.0006 148.319 13.0391 148.331 13.0758C148.531 13.6328 148.575 14.234 148.459 14.8143C148.451 14.8234 148.445 14.8329 148.44 14.8426C148.414 14.8926 148.4 14.9483 148.4 15.0046C148.4 15.0611 148.414 15.1168 148.44 15.1668C148.467 16.6829 147.692 17.8514 146.942 18.982C146.779 19.2185 146.62 19.4693 146.469 19.7058C145.192 20.7513 143.754 21.2834 141.667 21.475C139.702 21.2125 138.202 20.9334 136.872 19.7176L136.696 19.4953C135.665 18.2228 134.78 17.1299 134.945 15.1029C134.949 15.0778 134.949 15.0523 134.945 15.0271C134.951 14.9928 134.951 14.9575 134.945 14.9231C134.626 13.2224 135.319 11.5667 136.837 10.3817L136.872 10.3509C137.649 9.48993 139.239 8.57218 141.344 8.57218H141.627C143.354 8.7614 144.82 9.22264 145.866 9.90385C145.902 9.92969 145.946 9.94446 145.991 9.94643C146.169 9.94643 146.349 9.97718 146.524 9.99374C146.58 9.99965 146.637 9.98721 146.686 9.95825C146.862 9.85525 147.006 9.70643 147.102 9.52776C147.121 9.49431 147.132 9.4571 147.134 9.41896C147.155 8.92224 147.176 8.38768 147.157 7.85548C147.144 7.4179 147.105 6.97795 147.072 6.55219C147.056 6.37479 147.039 6.19739 147.027 6.01999V5.91828C146.972 5.32946 146.951 4.73794 146.964 4.14665C146.969 4.11856 146.969 4.08959 146.964 4.0615C146.921 3.91485 146.874 3.77056 146.824 3.62391C146.816 3.6036 146.806 3.58448 146.794 3.56715C146.46 3.07289 146.062 2.62509 145.61 2.23548C145.584 2.21211 145.554 2.19369 145.521 2.18106C144.904 1.96306 144.274 1.78763 143.634 1.65596C143.484 1.60866 143.335 1.56609 143.179 1.52824C141.861 1.22614 140.502 1.1462 139.157 1.2917C137.531 1.21503 135.911 1.52466 134.427 2.19526C133.009 2.66833 132.114 3.37793 131.064 4.21051C130.812 4.41156 130.55 4.61971 130.266 4.83969C130.254 4.84708 130.241 4.85668 130.231 4.86808C130.099 5.01236 129.947 5.16611 129.789 5.32695C129.139 5.9916 128.327 6.81946 128.11 7.59056C127.906 8.13223 127.62 8.77323 127.369 9.33854C127.119 9.8642 126.899 10.4036 126.709 10.9541C126.671 11.1362 126.617 11.3491 126.557 11.588C126.321 12.553 126 13.835 126.18 14.7646C126.137 14.812 126.114 14.872 126.111 14.9349C126.117 15.0023 126.139 15.0675 126.172 15.1264C126.206 15.1854 126.251 15.237 126.305 15.2779C126.596 16.0584 126.605 16.8815 126.61 17.6171C126.581 18.1231 126.635 18.6304 126.769 19.1191C126.787 19.2374 126.804 19.3556 126.82 19.4716C126.949 20.3468 127.09 21.3379 128.126 22.53C128.45 22.9274 128.736 23.3176 129.015 23.6938C129.382 24.2135 129.777 24.7133 130.199 25.191C130.42 25.4039 130.631 25.6191 130.835 25.8296C131.757 26.7758 132.63 27.6745 134.37 27.8709C135.262 28.3723 136.331 28.4645 137.465 28.5615C138.044 28.6113 138.647 28.6609 139.231 28.7696C139.617 28.8436 140.016 28.8283 140.395 28.7248H140.944C141.676 28.725 142.406 28.6313 143.115 28.4456C144.67 28.3361 146.2 27.9891 147.65 27.4168C147.754 27.4309 147.862 27.4428 147.979 27.4664C148.024 27.5899 148.046 27.7204 148.046 27.8519L148.027 27.9631C147.995 28.1476 147.964 28.3298 147.926 28.5119C147.591 28.9368 147.332 29.417 147.162 29.931C147.006 30.3591 146.897 30.6406 146.531 30.8771C146.515 30.8854 146.5 30.8966 146.487 30.9103C146.001 31.3443 145.441 31.6865 144.832 31.9203C144.545 32.0319 144.27 32.173 144.011 32.3414C143.709 32.3721 143.266 32.4573 142.755 32.5589C142.105 32.712 141.442 32.8133 140.776 32.8616C140.696 32.8654 140.617 32.859 140.539 32.8428C140.494 32.8283 140.444 32.8283 140.397 32.8428C139.945 32.9526 139.481 33.0074 139.016 33.006C137.744 33.006 136.609 32.6015 135.511 32.2113L135.364 32.1569H135.335C133.874 31.8115 132.765 31.232 131.591 30.6194C131.542 30.593 131.485 30.5839 131.43 30.5934C131.055 30.6493 130.69 30.7568 130.345 30.9126C130.299 30.9335 130.259 30.9671 130.231 31.0096L130.215 31.0333C129.834 31.6223 129.269 32.5069 129.089 33.453C128.84 33.9686 128.59 34.4606 128.367 34.8935C128.222 35.1703 128.095 35.4258 127.986 35.6433C127.974 35.6709 127.965 35.7005 127.96 35.7309C127.885 36.3836 128.31 36.878 128.784 37.3109C128.802 37.3298 128.825 37.345 128.85 37.3558C129.961 37.8521 131.101 38.2826 132.262 38.6449C132.281 38.6483 132.301 38.6483 132.32 38.6449C133.061 38.7453 133.794 38.8954 134.515 39.0944C135.395 39.3335 136.29 39.5199 137.192 39.6525H137.24C137.761 39.6591 138.281 39.697 138.799 39.7661C139.26 39.827 139.724 39.8618 140.189 39.8701C140.355 39.8701 140.517 39.8701 140.679 39.8513C141.366 39.8565 142.054 39.8154 142.736 39.7283C143.285 39.6739 143.799 39.6194 144.212 39.6194C144.342 39.6194 144.449 39.6194 144.56 39.636C144.616 39.6408 144.672 39.6284 144.721 39.6005C145.515 39.1226 146.427 38.8814 147.354 38.9051C147.534 38.9051 147.727 38.9051 147.945 38.924C147.972 38.9275 148 38.9275 148.027 38.924C148.692 38.7326 149.334 38.4676 149.939 38.134C150.215 37.976 150.506 37.8453 150.807 37.7438C151.621 37.6491 152.385 36.8378 152.936 36.2441C153.047 36.1235 153.154 36.0076 153.241 35.9224C154.424 34.877 155.786 33.0651 156.054 31.1398C156.29 29.9098 156.526 28.6821 156.741 28.0648C156.755 28.0168 156.755 27.9661 156.741 27.9181C156.632 27.5138 156.741 26.8869 156.849 26.2814C156.964 25.6191 157.085 24.9355 156.974 24.3608C156.967 24.3334 156.959 24.3071 156.945 24.2826C156.945 24.2378 156.969 24.1715 156.982 24.1148C157.126 23.6598 157.131 23.1728 157 22.7145C157.199 22.0545 157.132 21.5034 157.056 20.8695Z" fill="#E9413C"/>
<path d="M189.721 17.2671C189.641 16.7188 189.601 16.1655 189.601 15.6114C189.611 14.7526 189.519 13.8956 189.324 13.0592C189.087 11.6849 188.851 10.3864 188.141 9.16114C187.98 8.62658 187.604 8.13695 187.207 7.61895C186.779 7.05836 186.336 6.48123 186.177 5.84969C186.18 5.84191 186.18 5.8338 186.177 5.82603C185.792 4.79475 184.705 3.78475 183.181 3.07516L183.136 3.0586C182.214 2.82208 181.214 2.26621 180.061 1.63941L179.526 1.33901C179.502 1.3261 179.477 1.31655 179.451 1.31063C178.597 1.14742 177.689 1.04335 176.726 0.932175C176.104 0.86358 175.462 0.790255 174.834 0.695643C174.805 0.688529 174.775 0.688529 174.746 0.695643C174.155 0.807205 173.559 0.886169 172.959 0.932175C172.162 0.98196 171.371 1.09507 170.592 1.27041H170.565L170.494 1.2988C169.29 1.75294 167.92 2.26859 166.907 2.88356C166.896 2.89091 166.885 2.89965 166.875 2.90959C166.552 3.1816 166.136 3.51038 165.692 3.85571C165.06 4.32845 164.456 4.83786 163.885 5.38135C162.939 6.20211 161.964 7.77506 161.587 8.61475C161.284 9.22135 161.034 9.8538 160.841 10.5046C160.659 11.0605 160.452 11.6873 160.169 12.3969C160.15 12.4537 160.15 12.5151 160.169 12.5719C160.301 12.993 160.094 14.0124 159.906 14.9089C159.826 15.3063 159.75 15.6871 159.696 16.0252C159.726 16.1191 159.726 16.22 159.696 16.3139C159.696 16.5504 159.675 16.768 159.657 16.9951C159.679 17.1654 159.702 17.3806 159.734 17.6219C159.861 18.7336 160.055 20.3988 160.182 21.1036C160.044 22.2083 160.951 24.2779 161.749 25.0419C162.315 26.2394 163.135 27.2991 164.152 28.1476C164.606 28.7958 165.699 29.6046 167.402 30.5602L167.43 30.5744L168.296 30.941C169.251 31.3736 170.232 31.745 171.234 32.0527C171.884 32.3366 172.715 32.3626 173.585 32.3934C174.254 32.395 174.921 32.4559 175.579 32.5755C175.589 32.5777 175.597 32.5777 175.607 32.5755C175.751 32.5896 175.912 32.5991 176.095 32.5991C177.015 32.5644 177.931 32.4625 178.836 32.294C179.101 32.2491 179.332 32.2112 179.512 32.1852C179.541 32.1832 179.569 32.1751 179.592 32.1615C180.051 31.9676 180.526 31.8149 181.012 31.705C181.677 31.5655 182.321 31.338 182.926 31.0285C184.027 30.2811 185.066 29.633 185.705 29.2924C185.73 29.2816 185.752 29.2655 185.771 29.2451C185.987 29.0352 186.215 28.837 186.452 28.6514C186.611 28.526 186.769 28.396 186.925 28.2564C186.957 28.2261 186.982 28.1889 186.999 28.1476L187.041 28.0317C187.119 27.8354 187.185 27.6348 187.24 27.4309C187.335 27.0275 187.369 26.612 187.34 26.1986C187.339 26.1631 187.33 26.1283 187.315 26.0961C187.3 26.0641 187.279 26.0354 187.251 26.0118C186.687 25.4979 186.16 24.9446 185.674 24.356C185.156 23.8261 184.615 23.3176 184.064 22.8469C184.04 22.8256 184.011 22.8101 183.981 22.802C183.391 22.6248 182.762 22.6248 182.174 22.802C182.137 22.8116 182.102 22.8294 182.074 22.854C181.266 23.5075 180.385 24.0632 179.446 24.5098C178.336 25.1389 177.05 25.3834 175.787 25.2051L174.905 25.0325C173.375 24.7415 172.166 24.5121 171.104 23.7599C170.099 22.8138 169.547 22.1894 169.06 20.9002C168.912 20.6712 168.797 20.4219 168.722 20.1599C168.615 19.8739 168.549 19.5746 168.524 19.2705C168.47 18.6776 168.455 18.0819 168.479 17.4871C168.479 17.286 168.479 17.0874 168.479 16.8886C168.479 16.5882 168.479 16.2855 168.497 15.9827C168.516 15.68 168.524 15.3914 168.54 15.0957C168.561 14.6841 168.587 14.2584 168.59 13.8374C168.577 13.3521 168.664 12.8693 168.842 12.4182C168.861 12.3751 168.869 12.3278 168.864 12.281C169.24 11.3774 169.892 10.5945 170.64 9.74301C171.88 8.62894 173.412 8.338 174.645 8.10384L174.81 8.07309C176.644 8.15824 177.757 8.78269 178.954 9.77376C179.552 10.3036 180.154 11.3278 180.525 12.456C180.579 12.8381 180.579 13.2259 180.525 13.608C180.292 13.7825 180.036 13.922 179.764 14.0219C179.574 14.0076 179.375 13.9911 179.172 13.9651C179.144 13.958 179.115 13.958 179.086 13.9651C178.752 14.0211 178.414 14.0449 178.075 14.0361C177.672 14.0361 177.206 14.0195 176.716 14.0006C176.061 13.9746 175.377 13.9462 174.714 13.9556H174.669C174.2 14.0424 173.725 14.0827 173.249 14.0763C172.795 14.0763 172.324 14.0503 171.87 14.0195L171.419 13.9935C171.382 13.9919 171.346 13.9973 171.314 14.0094C171.28 14.0216 171.249 14.0403 171.222 14.0645C170.579 14.6724 170.369 15.4836 170.252 16.5007C170.251 16.5141 170.251 16.5276 170.252 16.541C170.252 16.645 170.252 16.7515 170.271 16.8507C170.304 17.1441 170.359 17.4326 170.411 17.7094C170.436 17.849 170.46 17.9814 170.486 18.1257C170.526 18.3457 170.571 18.5823 170.6 18.8354C170.607 18.8881 170.631 18.9375 170.666 18.9772C171 19.3627 171.612 19.6206 172.055 19.7696C172.08 19.773 172.105 19.773 172.13 19.7696C172.646 19.7696 173.204 19.7933 173.8 19.8123C174.274 19.85 174.759 19.8714 175.255 19.8714C175.751 19.8714 176.189 19.8547 176.674 19.8359C177.159 19.8169 177.675 19.798 178.24 19.798H178.879C179.647 19.8307 180.419 19.8236 181.187 19.7767C181.66 19.753 182.161 19.727 182.635 19.727C183.055 19.724 183.474 19.7494 183.891 19.8027H183.936C184.95 19.7554 185.962 19.7318 186.946 19.7318C187.439 19.7318 187.869 19.7318 188.224 19.746C188.244 19.7496 188.265 19.7496 188.285 19.746C188.739 19.6721 189.167 19.4914 189.536 19.2185C189.567 19.1931 189.591 19.1611 189.607 19.1251C189.624 19.0891 189.632 19.0499 189.631 19.0104V18.9299C189.6 18.402 189.634 17.8721 189.731 17.3522C189.732 17.3235 189.73 17.2946 189.721 17.2671Z" fill="#E9413C"/>
</g>
<defs>
<clipPath id="clip0_13_307">
<rect width="190" height="40" fill="white"/>
</clipPath>
</defs>
</svg>
