<svg width="84" height="32" viewBox="0 0 84 32" fill="none" xmlns="http://www.w3.org/2000/svg">
<g clip-path="url(#clip0_2_98)">
<path d="M25.1224 0.0012207H34.0213V31.9436H25.1224V0.0012207Z" fill="#F05A28" class="fill"/>
<path d="M39.6318 0.0012207H48.5307V31.9436H39.6318V0.0012207Z" fill="#F05A28" class="fill"/>
<path d="M52.5697 0.0012207H62.7456L72.6031 15.5828L62.0623 31.9436H52.1136L63.0657 15.6996L52.5697 0.0012207Z" fill="#F05A28" class="fill"/>
<path d="M69.4153 7.71438L73.6527 14.4626L83.0109 0.0012207H74.2768L69.4153 7.71438Z" fill="#F05A28" class="fill"/>
<path d="M83.2225 31.9437H73.0465L68.4698 24.6978L73.4898 16.8742L83.2225 31.9437Z" fill="#F05A28" class="fill"/>
<path d="M16.974 12.4238L9.35366 0.0571899H-0.00134277V32.0012H8.66876V13.7488L16.7915 26.1603H16.974L23.5718 16.0612V1.71824L16.974 12.4238Z" fill="#F05A28" class="fill"/>
</g>
<defs>
<clipPath id="clip0_2_98">
<rect width="84" height="32" fill="white"/>
</clipPath>
</defs>
</svg>
