<svg width="162" height="32" viewBox="0 0 162 32" fill="none" xmlns="http://www.w3.org/2000/svg">
<g clip-path="url(#clip0_2_115)">
<path d="M149.726 15.8462L149.921 14.8496L148.927 14.851L148.917 14.9916L149.726 15.8462Z" fill="#FF004A" class="fill"/>
<path d="M147.437 15.1006L147.477 14.8511L146.834 14.8525L146.707 15.3272L147.437 15.1006Z" fill="#FF004A" class="fill"/>
<path d="M30.1336 10.5505C30.1536 10.4788 30.1752 10.4071 30.1967 10.3411C29.247 9.97858 28.2774 9.67025 27.2928 9.4176C28.228 9.90815 29.1232 10.4715 29.9701 11.1026C30.0432 10.8373 30.0834 10.6967 30.1049 10.625C30.1135 10.5992 30.1264 10.5749 30.1336 10.5505Z" fill="#FF004A" class="fill"/>
<path d="M87.0225 17.4209L86.7357 17.2775C85.6598 16.7467 84.6229 16.1405 83.6325 15.4635L83.3844 16.397C84.5646 16.8258 85.881 17.2402 87.0225 17.4209Z" fill="#FF004A" class="fill"/>
<path d="M30.773 10.0716L30.644 10.0199C30.2725 9.87654 26.9428 8.56299 24.7473 8.56299H24.6455C25.0384 8.77809 25.4872 9.0061 25.8687 9.19969C27.1751 9.8622 28.85 10.714 30.241 11.8942L30.4088 11.2718C30.4547 11.1069 30.5049 10.9219 30.5723 10.7355H30.5637C30.6267 10.4989 30.6956 10.2781 30.773 10.0716ZM27.2927 9.41766C28.2773 9.67031 29.2468 9.97864 30.1965 10.3412C30.175 10.4114 30.1535 10.4846 30.1334 10.5505C30.1334 10.5749 30.1177 10.5993 30.1105 10.6251C30.089 10.6968 30.0488 10.8373 29.9757 11.1026C29.127 10.4714 28.2299 9.90795 27.2927 9.41766Z" fill="#FF004A" class="fill"/>
<path d="M97.905 8.17432L98.1029 8.2747C98.9993 8.71302 99.8719 9.19839 100.717 9.72879L100.929 8.9243C99.9448 8.58734 98.9329 8.33641 97.905 8.17432Z" fill="#FF004A" class="fill"/>
<path d="M82.8364 16.6822C84.5171 17.3189 86.6007 17.9728 88.0935 17.9728C88.3345 17.9742 88.575 17.9492 88.8105 17.8983C88.3301 17.5728 87.5343 17.1598 86.9549 16.8601C85.8866 16.3065 84.5357 15.6039 83.3699 14.666L82.8364 16.6822ZM86.7427 17.2759L87.0295 17.4193C85.8823 17.2386 84.5716 16.8242 83.3986 16.394L83.6466 15.4605C84.6347 16.1377 85.6693 16.7443 86.7427 17.2759Z" fill="#FF004A" class="fill"/>
<path d="M51.4001 20.8667L52.8957 15.3673C54.0296 16.1493 55.4048 16.5399 57.0214 16.5389C59.2326 16.5389 60.8502 16.1488 61.4812 13.7512L62.69 9.17811C63.3224 6.81772 61.5744 6.52088 59.5352 6.52088C57.9736 6.52088 56.7102 7.63798 54.9822 7.61647C51.3226 7.57488 49.4168 5.8555 49.4168 5.8555L46.8786 15.2655C45.8217 15.7072 44.3777 16.3367 44.7907 14.808L46.4613 8.50986H40.4958L38.6718 15.3444C37.7239 15.9022 36.7387 16.1617 37.0943 14.8611L38.8051 8.50556H36.5896C34.4386 8.50556 32.7995 8.61741 32.1298 11.1441C32.1298 11.1441 32.1111 11.1069 30.9826 15.4562C29.3263 11.2976 21.7805 10.1088 22.2681 8.2503C23.0439 5.33065 30.3258 8.13988 31.2507 8.50986L32.6188 3.37179C28.5892 2.44685 25.8173 2.08118 22.7112 2.08118C15.5411 2.08118 9.36624 5.29767 8.22763 9.58537C6.45376 16.2765 18.3202 17.3118 17.5057 20.3405C16.4345 24.2955 8.7281 20.1598 7.36005 19.6048L3.29749 25.9733C6.6244 26.8236 10.5809 27.5163 13.5005 27.5163C22.2251 27.5163 29.7293 23.709 31.0973 18.5709C31.147 18.3797 31.1872 18.1918 31.2178 18.0073C31.6164 18.2941 32.2775 18.416 33.2813 18.416C35.3061 18.416 36.515 17.6531 38.4108 16.8171C38.2803 17.8209 39.0417 18.3414 40.6034 18.3414C42.2281 18.3414 44.7921 17.4509 46.5101 16.6135L45.5063 20.3419C45.2338 21.3701 44.425 24.1162 44.425 24.1162C44.425 24.1162 47.3389 22.589 48.3714 22.1688C50.1023 21.4604 51.4001 20.8667 51.4001 20.8667ZM55.7394 9.12361C56.5754 9.12361 56.6686 9.4391 56.4464 10.2579L55.7207 12.9524C55.4985 13.7885 55.1471 14.0667 54.3269 14.0667C53.5066 14.0667 53.3231 13.7698 53.5468 12.9524L54.2523 10.3253C54.4918 9.40181 54.8474 9.12361 55.7394 9.12361Z" fill="#FF004A" class="fill"/>
<path d="M74.6857 21.5107H76.9156L78.0298 17.3105C78.6436 14.9874 80.0188 14.7651 81.5403 15.2541L82.4882 11.6863C81.5804 11.606 80.558 12.8493 79.2573 12.888C76.1126 12.9826 73.6905 11.1256 73.6905 11.1256C73.028 13.6208 72.615 15.1738 72.3468 16.1862C70.877 16.8473 67.4468 18.1766 68.0663 15.9123L68.2097 15.3731H70.6074L71.1652 13.2537H68.7733L68.8837 12.8636C69.4573 10.856 70.6862 11.4511 71.9137 11.8784L72.5605 9.3302C72.5605 9.3302 69.7154 9.31299 68.0792 9.31299C65.7188 9.31299 63.8059 9.45639 63.0803 12.138L61.0468 19.9333L65.1252 19.9534C67.3751 19.8559 69.6853 19.1317 71.7962 18.2698C71.7502 18.4477 71.7058 18.6183 71.637 18.8779C70.9501 21.3974 72.5118 21.5107 74.6857 21.5107Z" fill="#FF004A" class="fill"/>
<path d="M146.2 18.9896L146.375 17.6159C145.352 17.9328 143.673 18.6053 144.193 16.6723L145.232 12.7703H148.715L149.208 10.2981L145.91 10.3196L146.81 7.0271C146.81 7.0271 144.192 7.4487 143.876 7.50893C143.561 7.56916 140.57 7.82298 139.919 10.3139H138.786L138.069 13.0829H139.164L137.931 17.6546C137.357 19.8056 138.118 20.2186 140.347 20.2186C141.926 20.22 144.565 19.8257 146.2 18.9896Z" fill="#FF004A" class="fill"/>
<path d="M133.01 19.8931L133.593 16.1188C133.963 13.7455 135.209 13.0027 137.026 13.225L137.887 10.1576C136.722 10.2781 135.644 11.4583 134.35 11.5916C131.966 11.8397 129.564 9.96117 129.564 9.96117C128.656 13.6337 128.209 15.5538 127.777 17.4926C126.925 17.8282 125.124 18.2541 125.449 17.0538L127.17 10.5692C127.17 10.5692 123.231 11.5529 120.833 11.5529C119.105 11.5529 118.417 10.4573 116.857 10.4573C114.812 10.4573 112.898 10.7542 112.268 13.1146L111.376 16.4357C110.189 16.9635 108.346 17.0366 108.822 15.2699L109.955 11.0324H111.565L112.139 8.91434H110.541L111.247 6.31017H109.017C106.88 6.31017 105.207 6.42059 104.557 8.91147H102.607L102.049 11.0295H103.965L102.759 15.5495C102.94 10.5505 94.3745 9.4693 94.8592 7.62373C95.5375 5.06832 102.029 7.56207 102.834 7.88615L103.932 3.4063C100.406 2.59751 97.9638 2.2218 95.2464 2.2218C88.9711 2.2218 83.5692 5.03677 82.5654 8.78958C81.0138 14.6447 91.5552 15.5968 90.6862 18.2024C89.5046 21.7459 80.5176 17.4611 79.3217 16.9764L78.2031 21.5652C81.0712 23.3964 83.7026 24.3486 87.1915 24.4777C94.0074 24.7286 99.9758 21.8721 102.026 18.0533C101.367 20.1541 100.383 23.1928 100.383 23.1928C100.383 23.1928 104.143 21.1579 105.742 20.4194C107.144 19.7713 108.56 19.1001 110.989 17.963C110.526 20.114 111.907 20.4711 114.028 20.4711C115.644 20.4711 118.023 20.1183 119.047 18.6871C118.843 20.0251 120.088 20.4711 121.276 20.4711C122.751 20.4711 125.216 19.9175 127.49 18.7818C127.156 20.2158 126.612 22.46 126.612 22.46C127.729 21.8962 128.875 21.3921 130.045 20.95C131.333 20.4883 133.01 19.8931 133.01 19.8931ZM118.018 18.0031C117.22 18.0031 117.015 17.7249 117.238 16.8889L117.955 14.1944C118.179 13.3756 118.495 13.0601 119.331 13.0601C120.222 13.0601 120.353 13.3469 120.112 14.2689L119.405 16.8889C119.191 17.7063 118.839 18.0031 118.018 18.0031Z" fill="#FF004A" class="fill"/>
<path d="M155.74 17.7493L161.825 2.86851L152.766 0.39054L151.222 8.24463H148.64L149.686 4.46457L146.484 4.97938C146.053 5.04965 143.915 5.39238 143.518 5.46551H143.475C140.97 5.83118 139.563 6.89952 138.772 7.97217L137.679 8.08545C136.675 8.19014 135.855 8.65906 135.192 9.0319C134.809 9.24987 134.373 9.49652 134.143 9.5209C134.067 9.52912 133.992 9.53295 133.916 9.53237C132.7 9.53237 131.287 8.65476 130.854 8.32206L130.097 7.72982L130.107 7.69253L130.064 7.70401L128.322 6.34026L127.847 8.25753L126.68 8.54434C125.653 8.80246 122.604 9.46784 120.848 9.46784C120.445 9.46784 120.171 9.34738 119.639 9.09643C118.988 8.79099 118.097 8.37082 116.871 8.37082C116.036 8.35224 115.201 8.43068 114.383 8.60456L114.864 6.83356H113.265L113.972 4.23083H109.017C108.148 4.23083 106.935 4.23083 105.772 4.63952L106.456 1.85323L104.395 1.38001C100.465 0.478015 97.9854 0.14389 95.2436 0.14389C87.9861 0.14389 81.8069 3.55541 80.5507 8.25897C80.3733 8.90444 80.296 9.57329 80.3213 10.2422L80.0445 10.3985C79.7835 10.5419 79.3476 10.8 79.1941 10.8043H79.0249C76.7749 10.8043 74.9638 9.47358 74.9566 9.46784L74.7257 9.29146L75.2463 7.2609L72.579 7.24512C72.579 7.24512 69.7253 7.22648 68.0848 7.22648C67.2101 7.22648 66.0127 7.22648 64.8368 7.57494C64.7439 7.0235 64.5185 6.50285 64.18 6.05776C62.9367 4.44593 60.6366 4.44593 59.5309 4.44593C58.3923 4.44593 57.466 4.80013 56.6471 5.11131C56.0391 5.34219 55.5143 5.54151 55.0023 5.54151C52.3738 5.5114 50.9627 4.44019 50.7964 4.30539L48.3256 1.91059L47.1081 6.42773H36.5896C35.8224 6.42773 34.8559 6.42773 33.8951 6.66291L35.1857 1.82885L33.0791 1.34703C28.8531 0.377634 25.9449 0.000488281 22.7069 0.000488281C14.5459 0.000488281 7.59954 3.80636 6.20281 9.05341C4.71574 14.6647 9.94558 17.3807 13.0718 19.004C13.5995 19.2779 14.2878 19.6364 14.817 19.9548C13.013 19.9189 10.1579 18.6025 8.93747 18.0361C8.59187 17.8769 8.34236 17.7622 8.13873 17.679L6.52403 17.0265L-0.000732422 27.2797L2.78412 27.9967C4.67558 28.48 9.50677 29.6042 13.502 29.6042C22.4947 29.6042 30.2068 25.8443 32.6159 20.4868C32.8439 20.4983 33.0677 20.504 33.2828 20.504C35.0107 20.504 36.2741 20.0738 37.4945 19.5303C38.2387 20.1269 39.2827 20.4294 40.6048 20.4294C41.5682 20.4025 42.5242 20.2531 43.4499 19.9849C43.1502 21.0862 42.4461 23.4954 42.4318 23.5212L41.0436 28.2362L45.393 25.9561C46.1788 25.5446 48.3858 24.4074 49.1558 24.0919C50.9082 23.3749 52.2132 22.7841 52.2677 22.7583L53.1539 22.3524L54.2667 18.2641C55.1647 18.5063 56.0913 18.6259 57.0214 18.6197C57.7802 18.6382 58.5388 18.5757 59.2843 18.4333L58.3522 21.9954L65.1652 22.0284H65.2154C66.7101 21.9553 68.19 21.6961 69.6207 21.2569C69.7321 21.5583 69.8877 21.8415 70.0824 22.0972C71.2296 23.5943 73.2258 23.5943 74.6856 23.5943H77.5106C80.6826 25.5403 83.5822 26.4351 87.1185 26.5656C87.4211 26.5756 87.7265 26.5814 88.0276 26.5814C91.6385 26.5814 95.0156 25.807 97.7789 24.4734L96.7952 27.5049L101.371 25.0283C101.408 25.0082 105.089 23.0207 106.611 22.3137C107.471 21.9136 108.349 21.5049 109.46 20.983L109.515 20.9572L109.526 20.9729C110.739 22.5575 112.956 22.5575 114.023 22.5575C115.152 22.5575 116.857 22.4227 118.378 21.7502C119.13 22.275 120.128 22.5575 121.271 22.5575C122.383 22.5404 123.489 22.377 124.559 22.0714L123.519 26.3734L127.553 24.317C128.593 23.7933 129.659 23.3242 130.747 22.9117C132.037 22.4471 133.704 21.8548 133.705 21.8548L134.877 21.439L135.657 16.44C135.835 15.2928 136.087 15.2713 136.423 15.2699L135.924 17.1197C135.648 18.1537 135.389 19.6708 136.332 20.8984C137.412 22.3051 139.325 22.3051 140.348 22.3051C140.929 22.2992 141.509 22.2512 142.084 22.1617L140.871 22.7353L146.565 25.655L147.387 32.0019L151.926 27.4876L158.217 28.6664L155.324 22.9562L158.39 17.3377L155.74 17.7493ZM140.346 21.8419C139.034 21.8419 137.563 21.7473 136.694 20.6159C135.875 19.5504 136.12 18.178 136.365 17.2388L137.009 14.854L136.828 14.8325C136.701 14.8159 136.572 14.8073 136.443 14.8067C135.971 14.8067 135.439 14.8067 135.194 16.3683L134.462 21.1006L133.552 21.4246C133.552 21.4246 131.88 22.0169 130.59 22.4829C129.484 22.9037 128.4 23.3824 127.344 23.917L124.206 25.5159L125.034 22.0843C125.034 22.0757 125.101 21.8061 125.199 21.4003C123.809 21.8505 122.458 22.0972 121.272 22.0972C120.086 22.0972 119.121 21.7831 118.43 21.2067C116.833 21.9853 114.964 22.0972 114.025 22.0972C112.437 22.0972 110.838 21.9265 109.896 20.6933C109.817 20.5906 109.746 20.4822 109.683 20.3692L109.271 20.5642C108.161 21.0862 107.291 21.4949 106.424 21.8936C104.889 22.6106 101.195 24.601 101.157 24.6182L97.5997 26.5441L98.592 23.4781C95.6967 25.123 91.9755 26.1139 88.0276 26.1139C87.7322 26.1139 87.4311 26.1139 87.1357 26.0981C83.6496 25.969 80.7916 25.0756 77.6483 23.1268H74.6856C73.2516 23.1268 71.4548 23.1268 70.4495 21.8118C70.1956 21.4748 70.0188 21.0861 69.9318 20.6732C68.4014 21.1805 66.8097 21.4795 65.1996 21.5623H65.1609L58.9559 21.5322L59.9411 17.7593C58.834 18.158 57.714 18.1594 57.0228 18.1594C55.9785 18.1687 54.9396 18.0079 53.9469 17.6833L52.771 22.0226L52.0827 22.3395C52.0282 22.3639 50.7318 22.9562 48.9895 23.6646C48.2022 23.9844 45.9781 25.1301 45.1851 25.5446L41.7922 27.3184L42.8763 23.6517C42.8849 23.6244 43.6822 20.917 43.9461 19.9232L44.111 19.3066C42.8706 19.6967 41.6172 19.9619 40.6091 19.9619C39.264 19.9619 38.2473 19.6321 37.5834 18.9811C36.3214 19.5547 35.048 20.0365 33.2813 20.0365C32.9658 20.0365 32.6432 20.0279 32.322 19.9978C30.1509 25.351 22.4832 29.1368 13.5005 29.1368C10.7659 29.1368 6.80223 28.5416 2.89741 27.545L0.732048 26.99L6.70758 17.6001L7.95804 18.1078C8.15163 18.1866 8.40975 18.3057 8.73528 18.4562C10.0087 19.0442 12.9915 20.4194 14.8901 20.4194C15.5254 20.4194 15.7505 20.2832 15.8509 20.1326C15.4293 19.7153 14.1573 19.0542 13.284 18.6011C10.0876 16.9405 5.25349 14.4324 6.65022 9.1796C7.99963 4.13188 14.7524 0.470844 22.7112 0.470844C25.9119 0.470844 28.7914 0.845122 32.9802 1.80591L34.615 2.18019L33.234 7.36988C34.3583 6.89809 35.603 6.89666 36.5939 6.89666H47.4608L48.5407 2.89289L50.501 4.66103C50.5497 4.70118 52.0669 5.97172 55.0009 6.00613H55.0281C55.6017 6.00613 56.1653 5.79247 56.8163 5.54438C57.5979 5.24611 58.4827 4.90911 59.541 4.90911C61.1915 4.90911 62.8521 5.08406 63.8229 6.34313C64.2294 6.87961 64.4495 7.53424 64.4496 8.20734C65.7001 7.70114 67.071 7.70114 68.0949 7.70114C69.7339 7.70114 72.5862 7.71978 72.5862 7.71978L74.6612 7.73125L74.2124 9.48361L74.6856 9.84642C74.6985 9.85646 76.7133 11.3521 79.2185 11.2804C79.4881 11.2718 79.8939 11.0381 80.2854 10.8129C80.4561 10.714 80.6353 10.6136 80.8217 10.5175C80.7523 9.80323 80.8155 9.08223 81.0081 8.3909C82.2012 3.87232 88.1911 0.607076 95.2436 0.607076C97.9467 0.607076 100.406 0.938333 104.292 1.83172L105.895 2.19883L105.095 5.46121C106.386 4.69545 107.916 4.69401 109.017 4.69401H113.365L112.66 7.29531H114.259L113.715 9.30293C114.93 8.84405 116.179 8.84261 116.87 8.84261C117.993 8.84261 118.796 9.22119 119.441 9.52377C119.972 9.77472 120.322 9.93963 120.846 9.93963C123.013 9.93963 126.753 9.01182 126.79 9.00322L128.224 8.64328L128.593 7.14904L130.566 8.6863C131.035 9.04768 132.561 9.99556 133.913 9.99556C134.005 9.99592 134.096 9.99113 134.187 9.98122C134.515 9.94823 134.974 9.69442 135.419 9.43486C136.076 9.06202 136.82 8.64042 137.723 8.54577L139.03 8.40237C139.738 7.35267 141.062 6.27716 143.54 5.91722L143.596 5.90862C143.902 5.84983 146.283 5.46695 146.554 5.42392L149.045 5.0224L148.03 8.69347H151.13L150.013 14.3736H148.346L147.668 13.6566L147.552 14.3736H146.478L146.048 16.0012L146.191 15.9553L147.358 15.5954L146.653 19.9734L143.758 21.3673C142.523 21.6541 141.281 21.8419 140.346 21.8419ZM149.921 14.8497L149.726 15.8535L148.917 14.9931L148.926 14.8497H149.921ZM147.483 14.8497L147.443 15.0992L146.713 15.3258L146.839 14.8511L147.483 14.8497ZM157.378 28.0426L151.771 26.9915L147.724 31.0153L146.986 25.3524L141.909 22.7497L147.063 20.3032L147.969 14.669L150 16.82L153.125 0.968447L161.2 3.17539L155.002 18.3329L157.534 17.9386L154.801 22.9447L157.378 28.0426Z" fill="#FF004A" class="fill"/>
<path d="M153.556 17.59L159.007 4.25516L154.378 2.99036L151.603 17.0924L153.556 17.59Z" fill="#FF004A" class="fill"/>
<path d="M152.97 22.919L154.539 20.0438L151.303 20.5471L149.053 18.1681L148.533 21.4018L145.574 22.8057L148.488 24.2999L148.909 27.548L151.232 25.2378L154.45 25.8415L152.97 22.919Z" fill="#FF004A" class="fill"/>
</g>
<defs>
<clipPath id="clip0_2_115">
<rect width="162" height="32" fill="white"/>
</clipPath>
</defs>
</svg>
