<svg fill="none" height="32" viewBox="0 0 162 32" width="162" xmlns="http://www.w3.org/2000/svg" xmlns:xlink="http://www.w3.org/1999/xlink"><clipPath id="a"><path d="m0 0h162v32h-162z"/></clipPath><g clip-path="url(#a)" fill="#ff004a"><path d="m149.726 15.8462.195-.9966-.994.0014-.01.1406z"/><path d="m147.437 15.1006.04-.2495-.643.0014-.127.4747z"/><path d="m30.1336 10.5505c.02-.0717.0416-.1434.0631-.2094-.9497-.36252-1.9193-.67085-2.9039-.9235.9352.49055 1.8304 1.0539 2.6773 1.685.0731-.2653.1133-.4059.1348-.4776.0086-.0258.0215-.0501.0287-.0745z"/><path d="m87.0225 17.4209-.2868-.1434c-1.0759-.5308-2.1128-1.137-3.1032-1.814l-.2481.9335c1.1802.4288 2.4966.8432 3.6381 1.0239z"/><path d="m30.773 10.0716-.129-.0517c-.3715-.14336-3.7012-1.45691-5.8967-1.45691h-.1018c.3929.2151.8417.44311 1.2232.6367 1.3064.66251 2.9813 1.51431 4.3723 2.69451l.1678-.6224c.0459-.1649.0961-.3499.1635-.5363h-.0086c.063-.2366.1319-.4574.2093-.6639zm-3.4803-.65394c.9846.25265 1.9541.56098 2.9038.92354-.0215.0702-.043.1434-.0631.2093 0 .0244-.0157.0488-.0229.0746-.0215.0717-.0617.2122-.1348.4775-.8487-.6312-1.7458-1.19465-2.683-1.68494z"/><path d="m97.905 8.17432.1979.10038c.8964.43832 1.769.92369 2.6141 1.45409l.212-.80449c-.9842-.33696-1.9961-.58789-3.024-.74998z"/><path d="m82.8364 16.6822c1.6807.6367 3.7643 1.2906 5.2571 1.2906.241.0014.4815-.0236.717-.0745-.4804-.3255-1.2762-.7385-1.8556-1.0382-1.0683-.5536-2.4192-1.2562-3.585-2.1941zm3.9063.5937.2868.1434c-1.1472-.1807-2.4579-.5951-3.6309-1.0253l.248-.9335c.9881.6772 2.0227 1.2838 3.0961 1.8154z"/><path d="m51.4001 20.8667 1.4956-5.4994c1.1339.782 2.5091 1.1726 4.1257 1.1716 2.2112 0 3.8288-.3901 4.4598-2.7877l1.2088-4.57309c.6324-2.36039-1.1156-2.65723-3.1548-2.65723-1.5616 0-2.825 1.1171-4.553 1.09559-3.6596-.04159-5.5654-1.76097-5.5654-1.76097l-2.5382 9.41c-1.0569.4417-2.5009 1.0712-2.0879-.4575l1.6706-6.29814h-5.9655l-1.824 6.83454c-.9479.5578-1.9331.8173-1.5775-.4833l1.7108-6.35554h-2.2155c-2.151 0-3.7901.11185-4.4598 2.63854 0 0-.0187-.0372-1.1472 4.3121-1.6563-4.1586-9.2021-5.3474-8.7145-7.2059.7758-2.91965 8.0577-.11042 8.9826.25956l1.3681-5.13807c-4.0296-.92494-6.8015-1.29061-9.9076-1.29061-7.1701 0-13.34496 3.21649-14.48357 7.50419-1.77387 6.69113 10.09257 7.72643 9.27807 10.75513-1.0712 3.955-8.7776-.1807-10.14565-.7357l-4.06256 6.3685c3.32691.8503 7.28341 1.543 10.20301 1.543 8.7246 0 16.2288-3.8073 17.5968-8.9454.0497-.1912.0899-.3791.1205-.5636.3986.2868 1.0597.4087 2.0635.4087 2.0248 0 3.2337-.7629 5.1295-1.5989-.1305 1.0038.6309 1.5243 2.1926 1.5243 1.6247 0 4.1887-.8905 5.9067-1.7279l-1.0038 3.7284c-.2725 1.0282-1.0813 3.7743-1.0813 3.7743s2.9139-1.5272 3.9464-1.9474c1.7309-.7084 3.0287-1.3021 3.0287-1.3021zm4.3393-11.74309c.836 0 .9292.31549.707 1.13429l-.7257 2.6945c-.2222.8361-.5736 1.1143-1.3938 1.1143-.8203 0-1.0038-.2969-.7801-1.1143l.7055-2.6271c.2395-.92349.5951-1.20169 1.4871-1.20169z"/><path d="m74.6857 21.5107h2.2299l1.1142-4.2002c.6138-2.3231 1.989-2.5454 3.5105-2.0564l.9479-3.5678c-.9078-.0803-1.9302 1.163-3.2309 1.2017-3.1447.0946-5.5668-1.7624-5.5668-1.7624-.6625 2.4952-1.0755 4.0482-1.3437 5.0606-1.4698.6611-4.9 1.9904-4.2805-.2739l.1434-.5392h2.3977l.5578-2.1194h-2.3919l.1104-.3901c.5736-2.0076 1.8025-1.4125 3.03-.9852l.6468-2.5482s-2.8451-.01721-4.4813-.01721c-2.3604 0-4.2733.1434-4.9989 2.82501l-2.0335 7.7953 4.0784.0201c2.2499-.0975 4.5601-.8217 6.671-1.6836-.046.1779-.0904.3485-.1592.6081-.6869 2.5195.8748 2.6328 3.0487 2.6328z"/><path d="m146.2 18.9896.175-1.3737c-1.023.3169-2.702.9894-2.182-.9436l1.039-3.902h3.483l.493-2.4722-3.298.0215.9-3.2925s-2.618.4216-2.934.48183c-.315.06023-3.306.31405-3.957 2.80497h-1.133l-.717 2.769h1.095l-1.233 4.5717c-.574 2.151.187 2.564 2.416 2.564 1.579.0014 4.218-.3929 5.853-1.229z"/><path d="m133.01 19.8931.583-3.7743c.37-2.3733 1.616-3.1161 3.433-2.8938l.861-3.0674c-1.165.1205-2.243 1.3007-3.537 1.434-2.384.2481-4.786-1.63043-4.786-1.63043-.908 3.67253-1.355 5.59263-1.787 7.53143-.852.3356-2.653.7615-2.328-.4388l1.721-6.4846s-3.939.9837-6.337.9837c-1.728 0-2.416-1.0956-3.976-1.0956-2.045 0-3.959.2969-4.589 2.6573l-.892 3.3211c-1.187.5278-3.03.6009-2.554-1.1658l1.133-4.2375h1.61l.574-2.11806h-1.598l.706-2.60417h-2.23c-2.137 0-3.81.11042-4.46 2.6013h-1.95l-.558 2.11803h1.916l-1.206 4.52c.181-4.999-8.3845-6.0802-7.8998-7.92577.6783-2.55541 7.1698-.06166 7.9748.26242l1.098-4.47985c-3.526-.80879-5.9682-1.1845-8.6856-1.1845-6.2753 0-11.6772 2.81497-12.681 6.56778-1.5516 5.85512 8.9898 6.80722 8.1208 9.41282-1.1816 3.5435-10.1686-.7413-11.3645-1.226l-1.1186 4.5888c2.8681 1.8312 5.4995 2.7834 8.9884 2.9125 6.8159.2509 12.7843-2.6056 14.8345-6.4244-.659 2.1008-1.643 5.1395-1.643 5.1395s3.76-2.0349 5.359-2.7734c1.402-.6481 2.818-1.3193 5.247-2.4564-.463 2.151.918 2.5081 3.039 2.5081 1.616 0 3.995-.3528 5.019-1.784-.204 1.338 1.041 1.784 2.229 1.784 1.475 0 3.94-.5536 6.214-1.6893-.334 1.434-.878 3.6782-.878 3.6782 1.117-.5638 2.263-1.0679 3.433-1.51 1.288-.4617 2.965-1.0569 2.965-1.0569zm-14.992-1.89c-.798 0-1.003-.2782-.78-1.1142l.717-2.6945c.224-.8188.54-1.1343 1.376-1.1343.891 0 1.022.2868.781 1.2088l-.707 2.62c-.214.8174-.566 1.1142-1.387 1.1142z"/><path d="m155.74 17.7493 6.085-14.88079-9.059-2.47797-1.544 7.85409h-2.582l1.046-3.78006-3.202.51481c-.431.07027-2.569.413-2.966.48613h-.043c-2.505.36567-3.912 1.43401-4.703 2.50666l-1.093.11328c-1.004.10469-1.824.57361-2.487.94645-.383.21797-.819.46462-1.049.489-.076.00822-.151.01205-.227.01147-1.216 0-2.629-.87761-3.062-1.21031l-.757-.59224.01-.03729-.043.01148-1.742-1.36375-.475 1.91727-1.167.28681c-1.027.25812-4.076.9235-5.832.9235-.403 0-.677-.12046-1.209-.37141-.651-.30544-1.542-.72561-2.768-.72561-.835-.01858-1.67.05986-2.488.23374l.481-1.771h-1.599l.707-2.60273h-4.955c-.869 0-2.082 0-3.245.40869l.684-2.78629-2.061-.47322c-3.93-.901995-6.4096-1.23612-9.1514-1.23612-7.2575 0-13.4367 3.41152-14.6929 8.11508-.1774.64547-.2547 1.31432-.2294 1.98323l-.2768.1563c-.261.1434-.6969.4015-.8504.4058h-.1692c-2.25 0-4.0611-1.33072-4.0683-1.33646l-.2309-.17638.5206-2.03056-2.6673-.01578s-2.8537-.01864-4.4942-.01864c-.8747 0-2.0721 0-3.248.34846-.0929-.55144-.3183-1.07209-.6568-1.51718-1.2433-1.61183-3.5434-1.61183-4.6491-1.61183-1.1386 0-2.0649.3542-2.8838.66538-.608.23088-1.1328.4302-1.6448.4302-2.6285-.03011-4.0396-1.10132-4.2059-1.23612l-2.4708-2.3948-1.2175 4.51714h-10.5185c-.7672 0-1.7337 0-2.6945.23518l1.2906-4.83406-2.1066-.48182c-4.226-.969396-7.1342-1.34654172-10.3722-1.34654172-8.161 0-15.10736 3.80587172-16.50409 9.05292172-1.48707 5.61129 3.74277 8.32729 6.86899 9.95059.5277.2739 1.216.6324 1.7452.9508-1.804-.0359-4.6591-1.3523-5.87953-1.9187-.3456-.1592-.59511-.2739-.79874-.3571l-1.6147-.6525-6.52476242 10.2532 2.78485242.717c1.89146.4833 6.72265 1.6075 10.71788 1.6075 8.9927 0 16.7048-3.7599 19.1139-9.1174.228.0115.4518.0172.6669.0172 1.7279 0 2.9913-.4302 4.2117-.9737.7442.5966 1.7882.8991 3.1103.8991.9634-.0269 1.9194-.1763 2.8451-.4445-.2997 1.1013-1.0038 3.5105-1.0181 3.5363l-1.3882 4.715 4.3494-2.2801c.7858-.4115 2.9928-1.5487 3.7628-1.8642 1.7524-.717 3.0574-1.3078 3.1119-1.3336l.8862-.4059 1.1128-4.0883c.898.2422 1.8246.3618 2.7547.3556.7588.0185 1.5174-.044 2.2629-.1864l-.9321 3.5621 6.813.033h.0502c1.4947-.0731 2.9746-.3323 4.4053-.7715.1114.3014.267.5846.4617.8403 1.1472 1.4971 3.1434 1.4971 4.6032 1.4971h2.825c3.172 1.946 6.0716 2.8408 9.6079 2.9713.3026.01.608.0158.9091.0158 3.6109 0 6.988-.7744 9.7513-2.108l-.9837 3.0315 4.5758-2.4766c.037-.0201 3.718-2.0076 5.24-2.7146.86-.4001 1.738-.8088 2.849-1.3307l.055-.0258.011.0157c1.213 1.5846 3.43 1.5846 4.497 1.5846 1.129 0 2.834-.1348 4.355-.8073.752.5248 1.75.8073 2.893.8073 1.112-.0171 2.218-.1805 3.288-.4861l-1.04 4.302 4.034-2.0564c1.04-.5237 2.106-.9928 3.194-1.4053 1.29-.4646 2.957-1.0569 2.958-1.0569l1.172-.4158.78-4.999c.178-1.1472.43-1.1687.766-1.1701l-.499 1.8498c-.276 1.034-.535 2.5511.408 3.7787 1.08 1.4067 2.993 1.4067 4.016 1.4067.581-.0059 1.161-.0539 1.736-.1434l-1.213.5736 5.694 2.9197.822 6.3469 4.539-4.5143 6.291 1.1788-2.893-5.7102 3.066-5.6185zm-15.394 4.0926c-1.312 0-2.783-.0946-3.652-1.226-.819-1.0655-.574-2.4379-.329-3.3771l.644-2.3848-.181-.0215c-.127-.0166-.256-.0252-.385-.0258-.472 0-1.004 0-1.249 1.5616l-.732 4.7323-.91.324s-1.672.5923-2.962 1.0583c-1.106.4208-2.19.8995-3.246 1.4341l-3.138 1.5989.828-3.4316c0-.0086.067-.2782.165-.684-1.39.4502-2.741.6969-3.927.6969s-2.151-.3141-2.842-.8905c-1.597.7786-3.466.8905-4.405.8905-1.588 0-3.187-.1707-4.129-1.4039-.079-.1027-.15-.2111-.213-.3241l-.412.195c-1.11.522-1.98.9307-2.847 1.3294-1.535.717-5.229 2.7074-5.267 2.7246l-3.5573 1.9259.9923-3.066c-2.8953 1.6449-6.6165 2.6358-10.5644 2.6358-.2954 0-.5965 0-.8919-.0158-3.4861-.1291-6.3441-1.0225-9.4874-2.9713h-2.9627c-1.434 0-3.2308 0-4.2361-1.315-.2539-.337-.4307-.7257-.5177-1.1386-1.5304.5073-3.1221.8063-4.7322.8891h-.0387l-6.205-.0301.9852-3.7729c-1.1071.3987-2.2271.4001-2.9183.4001-1.0443.0093-2.0832-.1515-3.0759-.4761l-1.1759 4.3393-.6883.3169c-.0545.0244-1.3509.6167-3.0932 1.3251-.7873.3198-3.0114 1.4655-3.8044 1.88l-3.3929 1.7738 1.0841-3.6667c.0086-.0273.8059-2.7347 1.0698-3.7285l.1649-.6166c-1.2404.3901-2.4938.6553-3.5019.6553-1.3451 0-2.3618-.3298-3.0257-.9808-1.262.5736-2.5354 1.0554-4.3021 1.0554-.3155 0-.6381-.0086-.9593-.0387-2.1711 5.3532-9.8388 9.139-18.8215 9.139-2.7346 0-6.69827-.5952-10.60309-1.5918l-2.165362-.555 5.975532-9.3899 1.25046.5077c.19359.0788.45171.1979.77724.3484 1.27342.588 4.25622 1.9632 6.15482 1.9632.6353 0 .8604-.1362.9608-.2868-.4216-.4173-1.6936-1.0784-2.5669-1.5315-3.1964-1.6606-8.03051-4.1687-6.63378-9.4215 1.34941-5.04772 8.10218-8.708756 16.06098-8.708756 3.2007 0 6.0802.374278 10.269 1.335066l1.6348.37428-1.381 5.18969c1.1243-.47179 2.369-.47322 3.3599-.47322h10.8669l1.0799-4.00377 1.9603 1.76814c.0487.04015 1.5659 1.31069 4.4999 1.3451h.0272c.5736 0 1.1372-.21366 1.7882-.46175.7816-.29827 1.6664-.63527 2.7247-.63527 1.6505 0 3.3111.17495 4.2819 1.43402.4065.53648.6266 1.19111.6267 1.86421 1.2505-.5062 2.6214-.5062 3.6453-.5062 1.639 0 4.4913.01864 4.4913.01864l2.075.01147-.4488 1.75236.4732.36281c.0129.01004 2.0277 1.50568 4.5329 1.43398.2696-.0086.6754-.2423 1.0669-.4675.1707-.0989.3499-.1993.5363-.2954-.0694-.71427-.0062-1.43527.1864-2.1266 1.1931-4.51858 7.183-7.783824 14.2355-7.783824 2.7031 0 5.1624.331257 9.0484 1.224644l1.603.36711-.8 3.26238c1.291-.76576 2.821-.7672 3.922-.7672h4.348l-.705 2.6013h1.599l-.544 2.00762c1.215-.45888 2.464-.46032 3.155-.46032 1.123 0 1.926.37858 2.571.68116.531.25095.881.41586 1.405.41586 2.167 0 5.907-.92781 5.944-.93641l1.434-.35994.369-1.49424 1.973 1.53726c.469.36138 1.995 1.30926 3.347 1.30926.092.00036.183-.00443.274-.01434.328-.03299.787-.2868 1.232-.54636.657-.37284 1.401-.79444 2.304-.88909l1.307-.1434c.708-1.0497 2.032-2.12521 4.51-2.48515l.056-.0086c.306-.05879 2.687-.44167 2.958-.4847l2.491-.40152-1.015 3.67107h3.1l-1.117 5.68013h-1.667l-.678-.717-.116.717h-1.074l-.43 1.6276.143-.0459 1.167-.3599-.705 4.378-2.895 1.3939c-1.235.2868-2.477.4746-3.412.4746zm9.575-6.9922-.195 1.0038-.809-.8604.009-.1434zm-2.438 0-.04.2495-.73.2266.126-.4747zm9.895 13.1929-5.607-1.0511-4.047 4.0238-.738-5.6629-5.077-2.6027 5.154-2.4465.906-5.6342 2.031 2.151 3.125-15.851553 8.075 2.206943-6.198 15.15751 2.532-.3943-2.733 5.0061z"/><path d="m153.556 17.59 5.451-13.33484-4.629-1.2648-2.775 14.10204z"/><path d="m152.97 22.919 1.569-2.8752-3.236.5033-2.25-2.379-.52 3.2337-2.959 1.4039 2.914 1.4942.421 3.2481 2.323-2.3102 3.218.6037z"/></g></svg>