<svg fill="none" height="40" viewBox="0 0 312 40" width="312" xmlns="http://www.w3.org/2000/svg" xmlns:xlink="http://www.w3.org/1999/xlink"><clipPath id="a"><path d="m0 0h312v40h-312z"/></clipPath><g clip-path="url(#a)" fill="#f2b046"><path d="m41.5036 8.09032h10.535l-9.0878 31.83678h-12.3006l-4.4861-12.2427-3.56 12.2137h-12.2426l-10.3615-31.43151h11.1718l4.3993 11.98211 2.2575-8.2196 2.5179 1.3314 5.6149-13.342452 4.9492 10.013952 2.1996-1.15755 4.1967 11.31635z"/><path d="m55.9177 8.11777h9.6959v31.20013h-9.6959z"/><path d="m70.6774 8.11777h9.6377v23.50123h15.0501v7.6989h-24.6878z"/><path d="m97.7975 8.11931h14.3265c2.339-.08991 4.672.29408 6.859 1.1288 1.679.7424 3.157 1.87339 4.313 3.29949 1.148 1.4868 1.985 3.1896 2.46 5.007.505 1.9766.757 4.0091.753 6.049.11 2.6334-.273 5.2642-1.129 7.7565-.7 1.7562-1.777 3.3369-3.155 4.6309-1.224 1.1633-2.715 2.0081-4.341 2.46-1.883.5447-3.83.8368-5.789.8683h-14.3264zm9.6375 7.06199v17.0472h2.374c1.459.0944 2.921-.1328 4.283-.6657.933-.5069 1.645-1.3423 1.997-2.3443.583-1.7418.828-3.5788.724-5.4124.251-2.3727-.31-4.7602-1.592-6.7725-.715-.673-1.564-1.1862-2.492-1.5055-.929-.3194-1.914-.4377-2.891-.3468z"/><path d="m129.605 8.11777h25.846v6.65673h-16.15v4.9492h15.021v6.3675h-15.021v6.1357h16.613v7.091h-26.309z"/><path d="m159.3 39.3203v-31.20008h16.063c2.3-.0778 4.6.17566 6.831.75252 1.552.52634 2.892 1.54186 3.82 2.89426.995 1.4977 1.5 3.2675 1.447 5.0649.046 1.5107-.304 3.0072-1.014 4.3414-.685 1.2538-1.683 2.3103-2.894 3.0678-1.057.5833-2.2.9937-3.386 1.2156.887.2725 1.734.6618 2.518 1.1579.572.4907 1.086 1.044 1.533 1.6496.513.6038.968 1.2528 1.361 1.9392l4.688 9.03h-10.91l-5.384-9.3774c-.407-.919-1.01-1.7387-1.765-2.4022-.684-.4847-1.506-.7383-2.345-.7235h-.781v12.6478zm9.696-18.5522h4.051c.861-.0661 1.713-.2114 2.547-.4341.313-.0527.611-.1669.88-.3358.268-.1688.5-.3893.683-.6483.398-.5131.613-1.145.608-1.7945.024-.4328-.049-.8656-.215-1.2663-.165-.4008-.418-.7592-.74-1.049-1.076-.6532-2.337-.9378-3.59-.8104h-4.138z"/><path d="m191.224 8.11777h9l11.578 17.19183v-17.19183h9.377v31.20013h-9.261l-11.577-17.1051v17.1051h-9.06z"/><path d="m225.49 8.11777h25.845v6.65673h-16.149v4.9492h14.935v6.3675h-14.994v6.1357h16.614v7.091h-26.308z"/><path d="m253.419 28.9877 9.175-.55c.096 1.2123.505 2.379 1.186 3.3863.508.6213 1.156 1.1132 1.89 1.4352.735.322 1.536.465 2.336.4171 1.132.0765 2.254-.263 3.155-.9551.343-.2636.621-.6006.817-.9863.196-.3856.302-.8103.312-1.2425-.011-.4175-.113-.8279-.298-1.2026-.184-.3746-.449-.7049-.773-.968-1.476-.9557-3.147-1.5689-4.892-1.7945-3.265-.538-6.359-1.8368-9.029-3.7914-.879-.7332-1.579-1.6555-2.05-2.6982-.471-1.0425-.701-2.1779-.672-3.3217.006-1.6184.49-3.1991 1.39-4.544 1.028-1.506 2.478-2.67429 4.167-3.35739 2.452-.91129 5.059-1.32452 7.671-1.21553 3.187-.21596 6.361.56278 9.088 2.22862 1.092.8463 1.991 1.9171 2.636 3.1403.643 1.2233 1.017 2.5705 1.097 3.9507l-9.117.5208c-.135-1.1647-.667-2.2476-1.505-3.0678-.916-.6825-2.043-1.0207-3.184-.9552-.888-.0562-1.769.1997-2.488.7236-.272.2006-.492.4624-.643.7642-.15.3018-.228.6349-.226.9723.009.2597.076.5144.196.7447.12.2305.291.4309.499.5868 1.018.5974 2.154.963 3.329 1.0708 3.109.6183 6.14 1.5893 9.029 2.8943 1.627.7661 3.01 1.9683 3.994 3.4731.829 1.3907 1.26 2.9826 1.244 4.6016.002 1.9685-.582 3.8927-1.677 5.5282-1.123 1.7077-2.724 3.0467-4.602 3.8493-2.385.9403-4.935 1.3833-7.496 1.3023-5.298 0-8.973-1.0129-10.998-3.0678-2.13-2.0869-3.4-4.8953-3.561-7.8722z"/><path d="m282.97 28.9861 9.145-.55c.105 1.215.524 2.382 1.216 3.3863.508.6213 1.154 1.1132 1.889 1.4352.734.322 1.535.465 2.336.4171 1.133.0713 2.252-.2678 3.155-.9551.337-.2665.611-.6048.802-.9902.189-.3855.291-.8086.298-1.2386-.008-.4153-.105-.8241-.285-1.1986-.179-.3746-.438-.7062-.756-.972-1.489-.9545-3.168-1.5673-4.921-1.7945-3.266-.538-6.359-1.8368-9.03-3.7914-.879-.7332-1.579-1.6555-2.05-2.6982-.472-1.0425-.701-2.1779-.671-3.3217.005-1.6184.489-3.1991 1.39-4.5439 1.032-1.513 2.493-2.68235 4.196-3.35748 2.44-.91128 5.038-1.32455 7.641-1.21553 3.187-.21983 6.364.5592 9.088 2.22862 1.096.84229 1.999 1.91219 2.644 3.13629.644 1.224 1.015 2.5732 1.09 3.9547l-9.118.5208c-.111-1.1717-.646-2.2625-1.504-3.0678-.906-.6827-2.023-1.0213-3.155-.9551-.898-.0607-1.789.1953-2.518.7235-.263.2067-.475.4706-.62.7714-.146.3009-.221.6309-.219.9651.008.2597.074.5144.195.7447.121.2305.292.4309.499.5868.987.6058 2.093.9909 3.242 1.1288 3.109.6182 6.14 1.5892 9.029 2.8942 1.624.7589 2.999 1.9631 3.965 3.4729.836 1.3878 1.268 2.9819 1.245 4.6019.011 1.9656-.563 3.89-1.649 5.528-1.133 1.7086-2.744 3.0471-4.631 3.8493-2.384.9426-4.934 1.3859-7.496 1.3025-5.297 0-8.944-1.0129-10.999-3.0678-2.09-2.1259-3.318-4.9516-3.443-7.9302z"/></g></svg>