<svg fill="none" height="64" viewBox="0 0 138 64" width="138" xmlns="http://www.w3.org/2000/svg" xmlns:xlink="http://www.w3.org/1999/xlink"><clipPath id="a"><path d="m0 0h138v64h-138z"/></clipPath><g clip-path="url(#a)"><path clip-rule="evenodd" d="m.428589 0v64h137.142411v-64zm35.094511 58.5552h-1.5027l-.0904-.9077c-.1856.3466-.4736.6285-.8256.8079-.5535.2891-1.1575.2959-1.7415.2959-1.0368 0-2.0935-.0503-2.9692-.9383-.7653-.7881-.9264-1.826-.9264-2.6613 0-.9677.2112-1.9554 1.0443-2.7538.9254-.887 2.0436-1.0277 3.11-1.0277.7854 0 1.79.0799 2.6105.5685 1.0061.6093 1.2083 1.4269 1.2381 2.0257h-2.2703c-.0125-.1481-.0602-.2913-.1388-.4178-.0788-.1265-.1867-.233-.3147-.3103-.2982-.19-.6713-.23-.986-.23-.4333 0-.9695.0599-1.3694.479-.3624.3698-.522.9782-.522 1.6465 0 .7983.2521 1.2774.5138 1.5568.4125.4288.8951.4687 1.359.4687.3624 0 .7345-.0296 1.077-.2595.1428-.0965.2631-.222.3531-.3682.0902-.1461.1477-.3096.169-.4797h-1.2784v-1.2974h3.463zm8.4152 0-.4937-1.2072h-2.8289l-.5035 1.2072h-2.2844l3.1408-6.9845h2.124l3.1326 6.9845zm10.0338-5.3485h-2.3561v5.3485h-2.2375v-5.3485h-2.3658v-1.636h6.9565zm9.7832 5.3485h-2.2376v-2.8542h-2.8998v2.8542h-2.2374v-6.9845h2.2374v2.4943h2.8998v-2.4943h2.2376zm9.9732 0h-6.8048v-6.9845h6.6946v1.636h-4.4601v1.0578h3.6747v1.517h-3.6747v1.137h4.5703zm7.8777 0c-.2313-.3097-.2619-.5291-.282-.8782l-.0298-.499-.0049-.0692c-.0174-.2543-.0403-.59-.3076-.8091-.2715-.2216-.7645-.2291-.9159-.2291h-1.268v2.4846h-2.2374v-6.9845h4.5703c.5967 0 1.3188.0199 1.9027.4591.6041.4487.7049 1.077.7049 1.5464 0 .4288-.1008.8681-.4431 1.2169-.2505.2392-.5586.4109-.8949.4991v.0398c.3209.0408.6172.1926.836.4288.305.3401.3299.7432.3489 1.0472l.0031.0507.0403.6786c.0201.4088.0605.6654.2924 1.0179zm7.3658 0h-2.2376v-6.9845h2.2376zm10.6513 0h-2.1323l-3.1325-4.2137v4.2137h-2.2377v-6.9845h2.1444l3.1206 4.2137v-4.2137h2.2375zm10.9067 0h-1.499l-.091-.9077c-.186.3462-.474.6282-.825.8079-.555.2891-1.158.2959-1.742.2959-1.037 0-2.094-.0503-2.97-.9383-.764-.7881-.926-1.826-.926-2.6613 0-.9677.212-1.9554 1.044-2.7538.926-.887 2.044-1.0277 3.111-1.0277.785 0 1.79.0799 2.61.5685 1.007.6093 1.209 1.4269 1.238 2.0257h-2.274c-.013-.1481-.06-.2911-.139-.4176-.079-.1266-.186-.233-.314-.3105-.298-.19-.671-.23-.987-.23-.432 0-.966.0599-1.368.479-.363.3698-.523.9782-.523 1.6465 0 .7983.252 1.2774.514 1.5568.413.4288.895.4687 1.359.4687.362 0 .735-.0296 1.076-.2595.143-.0965.264-.222.354-.3682.09-.1461.147-.3096.169-.4797h-1.28v-1.2974h3.463zm21.164-12.0331h-125.38749v-40.69223h125.38749zm-100.9464-24.0023-4.0269 13.4923h-6.3239l-5.9271-19.6764h6.4089l2.8641 13.6891.4542-2.0522 3.7716-11.6369h5.558l3.7718 11.665.4542 2.0241 2.8639-13.6891h6.4089l-5.9271 19.6764h-6.3523zm27.8851 6.4936h-3.571v6.9987h-6.2956v-19.6764h12.8737c1.673 0 3.715.0562 5.3596 1.293 1.702 1.2648 1.9854 3.0362 1.9854 4.3573 0 1.2116-.2834 2.4455-1.2478 3.4295-.7073.6731-1.5758 1.1564-2.524 1.4045v.1125c.9928.1404 1.8431.6171 2.354 1.2087.8594.9589.9298 2.0944.9832 2.9518l.0088.1397.1141 1.9118c.0552 1.1526.1686 1.8829.8203 2.8668h-6.5222c-.6526-.8715-.7376-1.4895-.7943-2.4735l-.085-1.4047-.0068-.0899-.0079-.1101c-.0499-.7152-.1157-1.658-.864-2.2735-.766-.618-2.1553-.6462-2.5805-.6462zm1.0226-8.3485h-4.5936l.0022 4.3565h4.6503c.7659 0 1.7302-.1404 2.212-.4776.3096-.2247.8205-.7592.8205-1.7986 0-.7031-.2268-1.35-.9361-1.7431-.582-.3411-1.3131-.3392-2.0078-.3374zm17.9476 9.2756 2.1555-1.9398 6.1822 8.0114 7.6568-.028-9.6989-11.4403 9.1313-8.2081h-7.6001l-7.8268 7.505v-7.505h-6.2956v19.6764h6.2956zm27.5701-.9271h-3.57v6.9987h-6.2959v-19.6764h12.8729c1.673 0 3.719.0562 5.359 1.293 1.702 1.2648 1.986 3.0362 1.986 4.3573 0 1.2116-.284 2.4455-1.248 3.4295-.707.6733-1.576 1.1566-2.524 1.4045v.1125c.993.1404 1.843.6171 2.354 1.2087.86.9589.931 2.0944.984 2.9518l.009.1397.113 1.9118c.055 1.1526.169 1.8829.82 2.8668h-6.522c-.652-.8715-.737-1.4895-.793-2.4735l-.086-1.4047c-.005-.0642-.01-.1311-.015-.2-.05-.7152-.115-1.658-.864-2.2735-.766-.618-2.155-.6462-2.58-.6462zm1.024-8.3485h-4.594l.002 4.3565h4.651c.765 0 1.729-.1404 2.211-.4776.31-.2247.82-.7592.82-1.7986 0-.7031-.226-1.35-.935-1.7431-.583-.3411-1.314-.3392-2.008-.3374zm17.333 10.0628h-6.126v5.2842h6.126zm-80.5888 25.2527h-1.8125l.8966-2.3043zm37.5378-2.8737c.2469-.0006.5051-.0011.7145.1197.2514.1383.3319.3698.3319.6188 0 .369-.1813.559-.2917.6387-.1715.1198-.5131.1694-.7854.1694h-1.6504v-1.5465h1.6303c.0168 0 .0338-.0001.0508-.0001z" fill="#fff" fill-rule="evenodd"/></g></svg>