<svg fill="none" height="55" viewBox="0 0 127 55" width="127" xmlns="http://www.w3.org/2000/svg" xmlns:xlink="http://www.w3.org/1999/xlink"><clipPath id="a"><path d="m0 0h127v55h-127z"/></clipPath><g clip-path="url(#a)"><path d="m118.13 14.88c-1.197-1.4275-2.715-2.5514-4.43-3.28-1.659-.771-3.461-1.1833-5.29-1.21-.891-.0001-1.781.0735-2.66.22-.859.1174-1.69.392-2.45.81-.707.4109-1.323.9622-1.81 1.62-.512.7451-.769 1.6365-.73 2.54-.031.7779.171 1.5475.58 2.21.436.6406 1.014 1.1712 1.69 1.55.845.4885 1.736.8938 2.66 1.21 1 .37 2.19.75 3.47 1.15 1.86.58 3.78 1.24 5.79 2 1.948.6797 3.79 1.6325 5.47 2.83 1.642 1.1729 3.032 2.662 4.09 4.38 1.14 1.9789 1.701 4.2379 1.62 6.52.069 2.6926-.526 5.3608-1.73 7.77-1.119 2.139-2.717 3.9904-4.67 5.41-2.023 1.4604-4.297 2.535-6.71 3.17-2.54.6804-5.16 1.0168-7.79 1-3.867-.0082-7.7035-.6848-11.34-2-3.4082-1.1555-6.5166-3.0547-9.1-5.56l8.64-8.39c1.466 1.6645 3.2647 3.0034 5.28 3.93 2.039 1.055 4.295 1.6231 6.59 1.66.958.0023 1.913-.0983 2.85-.3.866-.177 1.69-.5163 2.43-1 .696-.4339 1.267-1.0402 1.66-1.76.43-.8156.644-1.7282.62-2.65.025-.8984-.246-1.78-.77-2.51-.606-.759-1.353-1.394-2.2-1.87-1.124-.6441-2.314-1.1638-3.55-1.55-1.413-.4734-3.02-.9767-4.82-1.51-1.7738-.5168-3.5166-1.1345-5.22-1.85-1.6259-.7136-3.1333-1.6713-4.47-2.84-1.3283-1.1703-2.4036-2.5994-3.16-4.2-.8506-1.8829-1.2609-3.9348-1.2-6-.0741-2.6024.5657-5.1754 1.85-7.44 1.2187-2.03621 2.8797-3.77237 4.86-5.08001 2.0804-1.35096 4.377-2.33519 6.79-2.909978 2.498-.609131 5.059-.9180254 7.63-.9200437 3.217.0216063 6.409.5688127 9.45 1.6199917 3.107 1.01945 5.98 2.64786 8.45 4.79004z" fill="#ed2079"/><path d="m96.46 2.87v26.28l-2.16-.85-.08-24.47z" fill="#be1e2d"/><path d="m96.3001 41.49v12.0999l-2.15-.63s-2.66-15.3299-.11-13.2299c.7204.6277 1.4749 1.2153 2.26 1.76z" fill="#be1e2d"/><path d="m82.9701 54.79.2299-31.45v-1.06l-12.93 32.51h-8.35l-12.62-32.51v2.42l.21 30.09h-11.21v-54.610007h13.63l14.5101 35.000007h.28l12.3699-35.000007h15.5601v54.610007z" fill="#e6463b"/><path d="m32.13 31.65v23.14h-11.38v-23.14l-20.75-31.470007h14.3l12 20.240007 12-20.210039h13.61z" fill="#f79420"/><path d="m51.9401.179993-13.63 21.650007v3.91l14.65-23.09001z" fill="#be1e2d"/></g></svg>