<svg fill="none" height="21" viewBox="0 0 19 21" width="19" xmlns="http://www.w3.org/2000/svg"><path d="m14 .5h-11.25c-1.40625 0-2.5 1.13281-2.5 2.5v15c0 1.4062 1.09375 2.5 2.5 2.5h11.25c1.3672 0 2.5-1.0938 2.5-2.5v-15c0-1.36719-1.1328-2.5-2.5-2.5zm-5.625 5c1.36719 0 2.5 1.13281 2.5 2.5 0 1.40625-1.13281 2.5-2.5 2.5-1.40625 0-2.5-1.09375-2.5-2.5 0-1.36719 1.09375-2.5 2.5-2.5zm3.75 10h-7.5c-.35156 0-.625-.2734-.625-.625 0-1.7188 1.36719-3.125 3.125-3.125h2.5c1.7188 0 3.125 1.4062 3.125 3.125 0 .3516-.3125.625-.625.625zm6.25-12.5h-.625v3.75h.625c.3125 0 .625-.27344.625-.625v-2.5c0-.3125-.3125-.625-.625-.625zm0 5h-.625v3.75h.625c.3125 0 .625-.2734.625-.625v-2.5c0-.3125-.3125-.625-.625-.625zm0 5h-.625v3.75h.625c.3125 0 .625-.2734.625-.625v-2.5c0-.3125-.3125-.625-.625-.625z" fill="#fff"/></svg>