<svg fill="none" height="64" viewBox="0 0 64 64" width="64" xmlns="http://www.w3.org/2000/svg" xmlns:xlink="http://www.w3.org/1999/xlink"><clipPath id="a"><path d="m0 0h64v64h-64z"/></clipPath><g clip-path="url(#a)"><path d="m0 0h64v64h-64z" fill="#fff"/><path d="m0 0h64v64h-64z" fill="#a6a6a6"/><path d="m33 33c6.5625 0 12-5.3438 12-12 0-6.5625-5.4375-12-12-12-6.6562 0-12 5.4375-12 12 0 6.6562 5.3438 12 12 12zm8.3438 3h-1.5938c-2.0625 1.0312-4.3125 1.5-6.75 1.5s-4.7812-.4688-6.8438-1.5h-1.5937c-6.9375 0-12.5625 5.7188-12.5625 12.6562v3.8438c0 2.5312 1.9688 4.5 4.5 4.5h33c2.4375 0 4.5-1.9688 4.5-4.5v-3.8438c0-6.9374-5.7188-12.6562-12.6562-12.6562z" fill="#808080"/></g></svg>