<svg fill="none" height="21" viewBox="0 0 26 21" width="26" xmlns="http://www.w3.org/2000/svg"><path d="m16.75 7.375c0-3.78906-3.6719-6.875-8.125-6.875-4.49219 0-8.125 3.08594-8.125 6.875 0 1.5625.58594 2.9688 1.60156 4.1406-.625 1.2891-1.523435 2.2266-1.523435 2.2656-.117187.0782-.117187.1954-.078125.3126.039062.1171.15625.1562.273438.1562 1.523442 0 2.773442-.4297 3.750002-.9375 1.21094.625 2.57812.9375 4.10156.9375 4.4531 0 8.125-3.0469 8.125-6.875zm7.1484 10.4688c.9766-1.1719 1.6016-2.6172 1.6016-4.2188 0-3.78906-3.3594-6.875-7.5-6.875-.0391 0-.0391.03906-.0391.03906 0 .19532.0391.39063.0391.58594 0 3.8672-3.125 7.1094-7.3047 7.9297.8203 3.0078 3.75 5.1953 7.3047 5.1953 1.2891 0 2.5391-.3125 3.5938-.8203.9765.4297 2.1874.8203 3.5937.8203.1172 0 .2344-.0391.2734-.1562.0391-.1172 0-.2344-.0781-.3126 0-.039-.8594-.9374-1.4844-2.1874z" fill="#fff"/></svg>