<svg fill="none" height="19" viewBox="0 0 26 19" width="26" xmlns="http://www.w3.org/2000/svg"><path d="m23.625 8.25c-1.0547 0-1.875.85938-1.875 1.875v3.125h-17.5v-3.125c0-1.01562-.85938-1.875-1.875-1.875-1.05469 0-1.875.85938-1.875 1.875v7.5c0 .3516.273438.625.625.625h2.5c.3125 0 .58594-.2734.58594-.625l.03906-.625h17.5v.625c0 .3516.2734.625.625.625h2.5c.3125 0 .625-.2734.625-.625v-7.5c0-1.01562-.8594-1.875-1.875-1.875zm-18.125 1.875v1.875h15v-1.875c0-1.48438 1.0547-2.73438 2.5-3.04688v-1.32812c0-2.73438-2.2656-5-5-5h-10.03906c-2.77344 0-5 2.26562-5 5l.03906 1.32812c1.40625.3125 2.5 1.5625 2.5 3.04688z" fill="#fff"/></svg>