<svg fill="none" height="19" viewBox="0 0 24 19" width="24" xmlns="http://www.w3.org/2000/svg"><path d="m23.25 4.8125c0 .89844-.7031 1.5625-1.5625 1.5625-.0391 0-.0391 0-.0391 0l-1.9922 10.8594c-.0781.5859-.625 1.0156-1.2109 1.0156h-12.92968c-.58593 0-1.13281-.4297-1.21093-1.0156l-1.99219-10.8594s0 0-.03906 0c-.85938 0-1.562502-.66406-1.562502-1.5625 0-.85938.703122-1.5625 1.562502-1.5625.82031 0 1.5625.70312 1.5625 1.5625 0 .35156-.15625.66406-.35156.9375l3.51562 2.8125c.625.46875 1.52344.27344 1.875-.42969l2.2656-4.49219c-.4297-.27343-.7422-.74218-.7422-1.32812 0-.85938.7032-1.5625 1.6016-1.5625.8594 0 1.5234.70312 1.5234 1.5625 0 .58594-.3125 1.05469-.7812 1.32812l2.2656 4.49219c.3516.70313 1.2891.89844 1.9141.42969l3.4765-2.8125c-.1562-.27344-.2734-.58594-.2734-.9375 0-.85938.6641-1.5625 1.5625-1.5625.8594 0 1.5625.70312 1.5625 1.5625z" fill="#fff"/></svg>