<svg fill="none" height="22" viewBox="0 0 22 22" width="22" xmlns="http://www.w3.org/2000/svg"><path d="m20.9609 2.0625c-.1562-.74219-.7421-1.328125-1.4843-1.484375-.8985-.15625-.8985-.039063-4.1797 2.070315-.3516.23437-.586.625-.586 1.05468v1.32813l-4.2187 4.21875c-.2734-.46875-.3516-1.01562-.1172-1.52344l.6641-1.44531c.1562-.3125.0781-.70313-.2344-.89844-.2735-.19531-.7031-.19531-.93751.07813l-1.48438 1.48437c-.35156.3125-.58593.66407-.74219 1.13281-.27343.78126-.82031 1.40626-1.5625 1.71876l-3.00781 1.40622c-2.22656.8985-2.812498 3.7891-1.09375 5.4688l2.85156 2.8515c1.71876 1.7188 4.57032 1.1328 5.46878-1.0937l1.4062-3.0078c.3516-.7031.9766-1.2891 1.7188-1.5625.4297-.1563.8203-.3906 1.1328-.7422l.8594-.8203c.2343-.2735.2734-.6641.0781-.9766-.1953-.2734-.586-.4297-.8984-.3125l-.8985.2734c-.5078.1563-1.0547.0782-1.4453-.2734l6.7578-6.7578c.0391 0 .0781.03906.0781.03906.586 0 1.0938-.23437 1.4453-.66406.3907-.42969.5079-1.01562.4297-1.5625zm-12.89059 13.8672-.42969.4297c-.11718.1172-.3125.1172-.46874 0l-2.03126-2.0313c-.07812-.0781-.11718-.1562-.11718-.2343 0-.0782.03906-.1563.11718-.2344l.42969-.4297c.07813-.0781.15625-.0781.23438-.0781.07812 0 .15625 0 .19531.0781l2.07031 2.0703c.07813.0391.07813.1172.07813.1953s0 .1563-.07813.2344zm2.49999-2.5-.4297.4297c-.1172.1172-.31248.1172-.46872 0l-2.03126-2.0703c-.07812-.0391-.07812-.1172-.07812-.1953 0-.0782 0-.1563.07812-.2344l.42969-.4297c.07813-.0781.15625-.1172.23438-.1172.07812 0 .15625.0391.23437.1172l2.03124 2.0312c.0781.0782.1172.1563.1172.2344s-.0391.1563-.1172.2344z" fill="#fff"/></svg>