<svg fill="none" height="50" viewBox="0 0 50 50" width="50" xmlns="http://www.w3.org/2000/svg"><path d="m25 12.4219c-7 0-12.5781 5.6875-12.5781 12.5781 0 7 5.5781 12.5781 12.5781 12.5781 6.8906 0 12.5781-5.5781 12.5781-12.5781 0-6.8906-5.6875-12.5781-12.5781-12.5781zm0 20.7812c-4.4844 0-8.2031-3.6093-8.2031-8.2031 0-4.4844 3.6093-8.0938 8.2031-8.0938 4.4844 0 8.0938 3.6094 8.0938 8.0938 0 4.5938-3.6094 8.2031-8.0938 8.2031zm15.9688-21.2187c0 1.6406-1.3126 2.9531-2.9532 2.9531s-2.9531-1.3125-2.9531-2.9531 1.3125-2.95315 2.9531-2.95315 2.9532 1.31255 2.9532 2.95315zm8.3124 2.9531c-.2187-3.9375-1.0937-7.4375-3.9374-10.28125-2.8438-2.84375-6.3438-3.71875-10.2813-3.9375-4.0469-.21875-16.1875-.21875-20.2344 0-3.9375.21875-7.3281 1.09375-10.28122 3.9375-2.84376 2.84375-3.718755 6.34375-3.937505 10.28125-.21875 4.0469-.21875 16.1875 0 20.2344.21875 3.9375 1.093745 7.3281 3.937505 10.2812 2.95312 2.8438 6.34372 3.7188 10.28122 3.9375 4.0469.2188 16.1875.2188 20.2344 0 3.9375-.2187 7.4375-1.0937 10.2813-3.9375 2.8437-2.9531 3.7187-6.3437 3.9374-10.2812.2188-4.0469.2188-16.1875 0-20.2344zm-5.25 24.5c-.7656 2.1875-2.5156 3.8281-4.5937 4.7031-3.2813 1.3125-10.9375.9844-14.4375.9844-3.6094 0-11.2656.3281-14.4375-.9844-2.1875-.875-3.82812-2.5156-4.70312-4.7031-1.3125-3.1719-.98438-10.8281-.98438-14.4375 0-3.5-.32812-11.1562.98438-14.4375.875-2.07812 2.51562-3.71875 4.70312-4.59375 3.1719-1.3125 10.8281-.98437 14.4375-.98437 3.5 0 11.1562-.32813 14.4375.98437 2.0781.76563 3.7187 2.51563 4.5937 4.59375 1.3126 3.2813.9844 10.9375.9844 14.4375 0 3.6094.3282 11.2656-.9844 14.4375z" fill="#000"/></svg>