<svg fill="none" height="21" viewBox="0 0 22 21" width="22" xmlns="http://www.w3.org/2000/svg"><path d="m12.2891 2.88281c-.9375.9375-1.3282 2.1875-1.2891 3.39844l4.2188 4.21875c1.2109.0781 2.4609-.3516 3.3984-1.28906l.0781-.07813-6.3281-6.32812zm-11.05472 14.17969c-.351568.3906-.351568 1.0156.03906 1.4063l1.75781 1.7578c.39063.3906 1.01563.3906 1.40625.039l5.27344-4.6875v4.2969c.03906.3516.31246.625.66406.625h1.2109c.3516 0 .6641-.2734.6641-.625v-6.4844l2.1875-1.9531-4.375-4.375zm18.43752-15.23438c-1.7578-1.7578075-4.5703-1.7578075-6.3281 0l-.0782.07813 6.3282 6.32813.0781-.07813c1.7578-1.75781 1.7578-4.57031 0-6.32813z" fill="#fff"/></svg>