<svg width="40" height="56" viewBox="0 0 40 56" fill="none" xmlns="http://www.w3.org/2000/svg">
<path d="M20 38.5C25.7969 38.5 30.5 33.9062 30.5 28V10.5C30.5 4.70312 25.7969 0 20 0C14.0938 0 9.5 4.70312 9.5 10.5V28C9.5 33.7969 14.0938 38.5 20 38.5ZM36.625 21C35.0938 21 34 22.2031 34 23.625V28C34 36.0938 27.2188 42.5469 19.0156 42C11.7969 41.5625 6 34.7812 6 27.4531V23.625C6 22.2031 4.79688 21 3.375 21C1.84375 21 0.75 22.2031 0.75 23.625V27.125C0.75 36.8594 7.64062 45.6094 17.375 46.9219V50.75H13C10.9219 50.75 9.39062 52.5 9.5 54.4688C9.5 55.3438 10.2656 56 11.25 56H28.75C29.625 56 30.3906 55.3438 30.3906 54.4688C30.5 52.5 28.9688 50.75 27 50.75H22.625V47.1406C31.9219 45.8281 39.25 37.7344 39.25 28V23.625C39.25 22.2031 38.0469 21 36.625 21Z" fill="black"/>
</svg>
