<svg fill="none" height="26" viewBox="0 0 25 26" width="25" xmlns="http://www.w3.org/2000/svg"><path d="m23.9531 19.1406-1.125 4.7344c-.1406.7031-.7031 1.1719-1.4062 1.1719-11.81252-.0469-21.4219-9.6563-21.4219-21.46878 0-.70312.421875-1.26562 1.125-1.40624l4.73438-1.125c.65624-.14063 1.35937.23437 1.64062.84374l2.20312 5.10938c.23438.60938.09376 1.3125-.42187 1.6875l-2.53125 2.0625c1.59375 3.2344 4.2188 5.8594 7.5 7.4531l2.0625-2.5312c.375-.4688 1.0781-.6563 1.6875-.4219l5.1094 2.2031c.6094.3281.9844 1.0313.8437 1.6875z" fill="#454545"/></svg>