<svg fill="none" height="21" viewBox="0 0 21 21" width="21" xmlns="http://www.w3.org/2000/svg"><path d="m19.9609 15.6172-.9375 3.9453c-.1172.5859-.5859.9766-1.1718.9766-9.84379-.0391-17.8516-8.0469-17.8516-17.89066 0-.58594.351562-1.05469.9375-1.17188l3.94531-.937498c.54688-.117187 1.13281.195313 1.36719.703128l1.83594 4.25781c.19531.50781.07812 1.09375-.35156 1.40625l-2.10938 1.71875c1.32812 2.6953 3.51562 4.8828 6.25 6.2109l1.7188-2.1093c.3124-.3907.8984-.5469 1.4062-.3516l4.2578 1.8359c.5078.2735.8203.8594.7031 1.4063z" fill="#fff"/></svg>