<svg fill="none" height="19" viewBox="0 0 18 19" width="18" xmlns="http://www.w3.org/2000/svg"><path d="m15.25.75h-12.5c-1.40625 0-2.5 1.13281-2.5 2.5v12.5c0 1.4062 1.09375 2.5 2.5 2.5h12.5c1.3672 0 2.5-1.0938 2.5-2.5v-12.5c0-1.36719-1.1328-2.5-2.5-2.5zm-6.25 14.375c-.70312 0-1.25-.5469-1.25-1.25s.50781-1.25 1.25-1.25c.66406 0 1.25.5469 1.25 1.25s-.58594 1.25-1.25 1.25zm2.6953-5.54688-1.7578 1.09378v.0781c0 .5078-.42969.9375-.9375.9375s-.9375-.4297-.9375-.9375v-.625c0-.3125.15625-.625.46875-.82031l2.22655-1.32813c.2734-.15625.4297-.42968.4297-.74218 0-.46876-.3906-.85938-.8594-.85938h-2.03122c-.50782 0-.85938.39062-.85938.85938 0 .50781-.42969.9375-.9375.9375s-.9375-.42969-.9375-.9375c0-1.52344 1.21094-2.73438 2.69531-2.73438h2.03129c1.5625 0 2.7734 1.21094 2.7734 2.73438 0 .9375-.5078 1.83593-1.3672 2.34374z" fill="#fff"/></svg>