<svg width="26" height="20" viewBox="0 0 26 20" fill="none" xmlns="http://www.w3.org/2000/svg">
<path d="M25.5 5.86719C25.5 6.14062 25.3828 6.41406 25.1875 6.64844L23.2734 9.07031C23 9.34375 22.6484 9.5 22.2969 9.5C22.0234 9.5 21.7109 9.42188 21.5156 9.26562L19.25 7.46875V17.625C19.25 18.6797 18.3906 19.5 17.375 19.5H8.625C7.57031 19.5 6.75 18.6797 6.75 17.625V7.46875L4.44531 9.26562C4.25 9.42188 3.9375 9.5 3.66406 9.5C3.3125 9.5 2.96094 9.34375 2.6875 9.03125L0.773438 6.64844C0.578125 6.41406 0.5 6.14062 0.5 5.86719C0.5 5.51562 0.65625 5.16406 0.96875 4.92969L6.24219 0.75C6.71094 0.359375 7.33594 0.125 7.96094 0.125H9.28906C9.60156 1.92188 11.125 3.25 13 3.25C14.8359 3.25 16.3594 1.92188 16.6719 0.125H17.9609C18.625 0.125 19.25 0.359375 19.7188 0.75L24.9922 4.92969C25.3047 5.16406 25.5 5.51562 25.5 5.86719Z" fill="white"/>
</svg>
