<svg fill="none" height="20" viewBox="0 0 26 20" width="26" xmlns="http://www.w3.org/2000/svg"><path d="m25.5 5.86719c0 .27343-.1172.54687-.3125.78125l-1.9141 2.42187c-.2734.27344-.625.42969-.9765.42969-.2735 0-.586-.07812-.7813-.23438l-2.2656-1.79687v10.15625c0 1.0547-.8594 1.875-1.875 1.875h-8.75c-1.05469 0-1.875-.8203-1.875-1.875v-10.15625l-2.30469 1.79687c-.19531.15626-.50781.23438-.78125.23438-.35156 0-.70312-.15625-.97656-.46875l-1.914062-2.38281c-.195313-.23438-.273438-.50782-.273438-.78125 0-.35157.15625-.70313.46875-.9375l5.27344-4.17969c.46875-.390625 1.09375-.625 1.71875-.625h1.32812c.3125 1.79688 1.83594 3.125 3.71094 3.125 1.8359 0 3.3594-1.32812 3.6719-3.125h1.289c.6641 0 1.2891.234375 1.7579.625l5.2734 4.17969c.3125.23437.5078.58593.5078.9375z" fill="#fff"/></svg>