<svg fill="none" height="19" viewBox="0 0 21 19" width="21" xmlns="http://www.w3.org/2000/svg"><path d="m6.25 15.75h-2.5c-.70312 0-1.25-.5469-1.25-1.25v-10c0-.66406.54688-1.25 1.25-1.25h2.5c.66406 0 1.25-.54688 1.25-1.25 0-.66406-.58594-1.25-1.25-1.25h-2.5c-2.10938 0-3.75 1.67969-3.75 3.75v10c0 2.1094 1.64062 3.75 3.75 3.75h2.5c.66406 0 1.25-.5469 1.25-1.25 0-.6641-.58594-1.25-1.25-1.25zm13.3594-7.10938-5-5c-.4688-.50781-1.2891-.50781-1.7578 0-.5078.46876-.5078 1.28907 0 1.75782l2.8515 2.85156h-8.2031c-.70312 0-1.25.58594-1.25 1.25 0 .7031.54688 1.25 1.25 1.25h8.2031l-2.8515 2.8906c-.5078.4688-.5078 1.2891 0 1.7578.4687.5078 1.289.5078 1.7578 0l5-5c.5078-.46871.5078-1.28902 0-1.75778z" fill="#fff"/></svg>