<svg fill="none" height="56" viewBox="0 0 56 56" width="56" xmlns="http://www.w3.org/2000/svg"><path d="m28 .875c-14.9844 0-27.125 12.25-27.125 27.125 0 14.9844 12.1406 27.125 27.125 27.125 14.875 0 27.125-12.1406 27.125-27.125 0-14.875-12.25-27.125-27.125-27.125zm10.9375 39.9219c-.4375 0-.7656-.1094-1.0937-.3281-6.8907-4.1563-14.7657-4.2657-22.6407-2.7344-.4375.1094-.9843.3281-1.3125.3281-1.0937 0-1.75-.875-1.75-1.75 0-1.0937.6563-1.6406 1.5313-1.8594 8.9687-1.9687 18.0469-1.75 25.9219 2.8438.6562.4375.9843.875.9843 1.8593 0 .9844-.7656 1.6407-1.6406 1.6407zm2.9531-7.1094c-.5468 0-.9844-.3281-1.3125-.4375-6.8906-4.0469-17.0625-5.6875-26.1406-3.2812-.5469.1093-.7656.3281-1.3125.3281-1.0938 0-2.0781-.9844-2.0781-2.1875 0-1.0938.5469-1.8594 1.6406-2.1875 3.0625-.875 6.2344-1.5313 10.7187-1.5313 7.1094 0 14 1.75 19.3594 5.0313.875.4375 1.3125 1.2031 1.3125 2.0781-.1093 1.2031-.9843 2.1875-2.1875 2.1875zm3.3906-8.3125c-.5468 0-.875-.2188-1.4218-.4375-7.7656-4.7031-21.6563-5.7969-30.7344-3.2813-.3281.1094-.875.3282-1.4219.3282-1.4219 0-2.5156-1.2032-2.5156-2.625 0-1.5313.9844-2.2969 1.9687-2.625 3.8282-1.0938 8.0938-1.6406 12.7969-1.6406 7.9844 0 16.4063 1.6406 22.4219 5.25.875.4374 1.4219 1.0937 1.4219 2.4062 0 1.5312-1.2031 2.625-2.5157 2.625z" fill="#000"/></svg>