<svg viewBox="0 0 576 512" xmlns="http://www.w3.org/2000/svg"><path d="m64 64c-35.3 0-64 28.7-64 64v64c0 8.8 7.4 15.7 15.7 18.6 18.8 6.5 32.3 24.4 32.3 45.4s-13.5 38.9-32.3 45.4c-8.3 2.9-15.7 9.8-15.7 18.6v64c0 35.3 28.7 64 64 64h448c35.3 0 64-28.7 64-64v-64c0-8.8-7.4-15.7-15.7-18.6-18.8-6.5-32.3-24.4-32.3-45.4s13.5-38.9 32.3-45.4c8.3-2.9 15.7-9.8 15.7-18.6v-64c0-35.3-28.7-64-64-64zm64 112v160c0 8.8 7.2 16 16 16h288c8.8 0 16-7.2 16-16v-160c0-8.8-7.2-16-16-16h-288c-8.8 0-16 7.2-16 16zm-32-16c0-17.7 14.3-32 32-32h320c17.7 0 32 14.3 32 32v192c0 17.7-14.3 32-32 32h-320c-17.7 0-32-14.3-32-32z" fill="#fff"/></svg>