<svg fill="none" height="21" viewBox="0 0 22 21" width="22" xmlns="http://www.w3.org/2000/svg"><path d="m13.9297 9.28906c1.1328 0 2.1484.42969 2.9297 1.21094l.7812.7422c1.5625-.7031 2.7735-2.07032 3.1641-3.75001.2344-.9375.2344-1.875.0391-2.69531-.1172-.42969-.6641-.54688-.9766-.23438l-2.6953 2.65625h-2.9297v-2.89063l2.6953-2.69531c.3125-.3125.1563-.859372-.2734-.97656-.8203-.195312-1.7188-.195312-2.6563.039062-2.1875.507808-3.8672 2.343748-4.21874 4.531248-.03906.3125-.03906.625-.03906.9375l3.2422 3.24219c.3125-.07813.625-.11719.9375-.11719zm2.0703 2.10934c-.9375-.8984-2.2656-1.0546-3.3594-.5468l-4.17966-4.17972v-2.42188l-4.96094-3.75-2.5 2.5 3.75 4.96094h2.42188l4.14062 4.14066c-.5078 1.0937-.3516 2.4609.5469 3.3593l4.5703 4.5703c.5859.5469 1.4844.5469 2.0703 0l2.0703-2.0703c.5469-.5468.5469-1.4843 0-2.0703zm-6.13281 1.0938-2.30469-2.3047-5.82031 5.8203c-1.015628 1.0547-1.015628 2.6953 0 3.75.50781.5078 1.21093.7422 1.875.7422.66406 0 1.36719-.2344 1.875-.7422l4.64841-4.6484c-.35154-.8203-.46872-1.7188-.27341-2.6172zm-6.36719 6.4453c-.54688 0-.9375-.3906-.9375-.9375 0-.5078.39062-.9375.9375-.9375.50781 0 .9375.4297.9375.9375 0 .5469-.42969.9375-.9375.9375z" fill="#fff"/></svg>