<svg fill="none" height="21" viewBox="0 0 26 21" width="26" xmlns="http://www.w3.org/2000/svg"><path d="m12.9609 13c2.2657 0 4.0625-1.7969 4.0625-4.0625 0-2.22656-1.8359-4.0625-4.0625-4.0625-2.2265 0-4.0234 1.83594-4.0234 4.0625-.03906 2.2656 1.7969 4.0625 4.0234 4.0625zm1.9532 1.25h-3.8672c-3.08596 0-5.5469 2.3438-5.5469 5.2344 0 .5859.46875 1.0156 1.09375 1.0156h12.77345c.625 0 1.1328-.4297 1.1328-1.0156 0-2.8906-2.5-5.2344-5.5859-5.2344zm5.5859-7.5c1.7188 0 3.125-1.36719 3.125-3.125 0-1.71875-1.4062-3.125-3.125-3.125-1.7578 0-3.125 1.40625-3.125 3.125 0 1.75781 1.3672 3.125 3.125 3.125zm-12.85156 2.1875c0-.19531.03906-.39062.07812-.58594-.42968-.23437-.89844-.35156-1.40625-.35156h-2.38281c-1.91406 0-3.4375 1.64062-3.4375 3.6719 0 .3906.273438.7031.66406.7031h7.8125c-.82031-.8984-1.32812-2.1094-1.32812-3.4375zm-2.14844-2.1875c1.71875 0 3.125-1.36719 3.125-3.125 0-1.71875-1.40625-3.125-3.125-3.125-1.75781 0-3.125 1.40625-3.125 3.125 0 1.75781 1.36719 3.125 3.125 3.125zm16.5234 1.25h-2.3828c-.5078 0-.9765.15625-1.4062.35156 0 .19532.039.39063.039.58594 0 1.3281-.4687 2.5391-1.289 3.4375h7.8125c.3906 0 .7031-.3125.7031-.7031 0-2.03128-1.5625-3.6719-3.4766-3.6719z" fill="#fff"/></svg>