<svg fill="none" height="15" viewBox="0 0 26 15" width="26" xmlns="http://www.w3.org/2000/svg"><path d="m24.9922 10.2734-5.3125-4.14059-1.6797 1.05469-1.25-.9375.8594-1.71875-3.8672-3.00781c-1.25-.937502-2.8125-1.52344-4.4922-1.52344-1.52344 0-2.92969.46875-4.14062 1.25-.42969-.742188-1.21094-1.25-2.14844-1.25-1.36719 0-2.46094 1.13281-2.46094 2.5 0 1.13281.70312 2.07031 1.71875 2.38281-.3125.82031-.50781 1.71875-.50781 2.61719 0 4.1406 3.35937 7.5 7.5 7.5 2.46096 0 4.68746-1.2109 6.01566-3.0469l5.8984 2.9297c.2344.0781.4297.1172.625.1172.3125 0 .625-.1172.8594-.3516l2.5-2.5c.2734-.2343.3906-.5859.3515-.9375 0-.3906-.1953-.7031-.4687-.9375zm-21.40626-7.69528c-.15625.15626-.27344.35157-.39063.50782-.07812.03906-.15625.03906-.23437.03906-.3125 0-.625-.27344-.625-.625 0-.3125.27344-.625.625-.625.3125 0 .625.3125.625.625zm5.66406 7.42188c-1.40625 0-2.5-1.09375-2.5-2.5 0-1.36719 1.09375-2.5 2.5-2.5 1.3672 0 2.5 1.13281 2.5 2.5 0 1.40625-1.1328 2.5-2.5 2.5z" fill="#fff"/></svg>