<svg fill="none" height="13" viewBox="0 0 18 13" width="18" xmlns="http://www.w3.org/2000/svg"><path d="m5.0625 7.625c1.20312 0 2.1875-.95703 2.1875-2.1875 0-1.20312-.98438-2.1875-2.1875-2.1875-1.23047 0-2.1875.98438-2.1875 2.1875 0 1.23047.95703 2.1875 2.1875 2.1875zm10.0625-4.375h-6.5625c-.24609 0-.4375.21875-.4375.4375v4.8125h-6.125v-7.4375c0-.21875-.21875-.4375-.4375-.4375h-.875c-.246094 0-.4375.21875-.4375.4375v11.375c0 .2461.191406.4375.4375.4375h.875c.21875 0 .4375-.1914.4375-.4375v-1.3125h14v1.3125c0 .2461.1914.4375.4375.4375h.875c.2187 0 .4375-.1914.4375-.4375v-6.5625c0-1.44922-1.1758-2.625-2.625-2.625z" fill="#000"/></svg>