<svg width="18" height="13" viewBox="0 0 18 13" fill="none" xmlns="http://www.w3.org/2000/svg">
<path d="M5.0625 7.625C6.26562 7.625 7.25 6.66797 7.25 5.4375C7.25 4.23438 6.26562 3.25 5.0625 3.25C3.83203 3.25 2.875 4.23438 2.875 5.4375C2.875 6.66797 3.83203 7.625 5.0625 7.625ZM15.125 3.25H8.5625C8.31641 3.25 8.125 3.46875 8.125 3.6875V8.5H2V1.0625C2 0.84375 1.78125 0.625 1.5625 0.625H0.6875C0.441406 0.625 0.25 0.84375 0.25 1.0625V12.4375C0.25 12.6836 0.441406 12.875 0.6875 12.875H1.5625C1.78125 12.875 2 12.6836 2 12.4375V11.125H16V12.4375C16 12.6836 16.1914 12.875 16.4375 12.875H17.3125C17.5312 12.875 17.75 12.6836 17.75 12.4375V5.875C17.75 4.42578 16.5742 3.25 15.125 3.25Z" fill="black"/>
</svg>
