<svg fill="none" height="15" viewBox="0 0 18 15" width="18" xmlns="http://www.w3.org/2000/svg"><path d="m11.625 5.5625c0-2.65234-2.57031-4.8125-5.6875-4.8125-3.14453 0-5.6875 2.16016-5.6875 4.8125 0 1.09375.410156 2.07812 1.12109 2.89844-.437496.90234-1.066402 1.55856-1.066402 1.58596-.082032.0547-.082032.1367-.054688.2187.027344.0821.109375.1094.191406.1094 1.066404 0 1.941404-.3008 2.625004-.65625.84765.43745 1.80468.65625 2.87109.65625 3.11719 0 5.6875-2.13281 5.6875-4.8125zm5.0039 7.3281c.6836-.8203 1.1211-1.832 1.1211-2.9531 0-2.65234-2.3516-4.8125-5.25-4.8125-.0273 0-.0273.02734-.0273.02734 0 .13672.0273.27344.0273.41016 0 2.70703-2.1875 4.9766-5.11328 5.5508.57422 2.1055 2.62498 3.6367 5.11328 3.6367.9023 0 1.7773-.2188 2.5156-.5742.6836.3008 1.5313.5742 2.5156.5742.0821 0 .1641-.0273.1915-.1094.0273-.082 0-.164-.0547-.2187 0-.0274-.6016-.6563-1.0391-1.5313z" fill="#000"/></svg>