<svg fill="none" height="13" viewBox="0 0 14 13" width="14" xmlns="http://www.w3.org/2000/svg"><path d="m11.375.625h-1.75c-.49219 0-.875.41016-.875.875 0 .49219.38281.875.875.875h1.75c.4648 0 .875.41016.875.875v7c0 .4922-.4102.875-.875.875h-1.75c-.49219 0-.875.4102-.875.875 0 .4922.38281.875.875.875h1.75c1.4492 0 2.625-1.1484 2.625-2.625v-7c0-1.44922-1.1758-2.625-2.625-2.625zm-2.02344 5.52344-3.5-3.5c-.32812-.35547-.90234-.35547-1.23047 0-.35547.32812-.35547.90234 0 1.23047l1.9961 1.99609h-5.74219c-.492188 0-.875.41016-.875.875 0 .49219.382812.875.875.875h5.74219l-1.9961 2.02344c-.35547.32812-.35547.90236 0 1.23046.32813.3555.90235.3555 1.23047 0l3.5-3.49999c.35547-.32813.35547-.90235 0-1.23047z" fill="#000"/></svg>