<svg fill="none" height="15" viewBox="0 0 15 15" width="15" xmlns="http://www.w3.org/2000/svg"><path d="m12.8672 7.12109c-.1914.30079-.4375.57422-.7383.76563-.3008.1914-.6289.30078-.9844.35547-.6015.05469-1.17575-.10938-1.66794-.4375l-6.61718 6.64451c-.21876.1914-.49219.3008-.76563.3008-.30078 0-.57422-.1094-.79297-.3008-.1914-.2187-.328124-.4922-.328124-.793 0-.2734.136724-.5468.328124-.7656l6.64453-6.61716c-.32812-.49219-.49219-1.06641-.4375-1.66797.05469-.35547.16407-.68359.35547-.98438.19141-.30078.46484-.54687.76563-.73828l3.22659-2.050779c.082-.054687.1914-.082031.3007-.054687.1094 0 .1915.054687.2735.164062.0547.082034.082.164064.082.273434 0 .10938-.0547.21875-.1367.30078l-2.76172 2.78907.32813.32812 3.19919-2.54297c.0547-.05468.1641-.08203.2461-.08203.0821.02735.1641.05469.2461.10938.0547.08203.082.16406.1094.24609 0 .08203-.0274.19141-.082.2461l-2.543 3.19921.3281.32813 2.7891-2.76172c.082-.08203.1914-.13672.3008-.13672.1093 0 .1914.02734.2734.08203.1094.08203.1641.16407.1641.27344.0273.10937 0 .21875-.0547.30078z" fill="#000"/></svg>