<svg fill="none" height="13" viewBox="0 0 16 13" width="16" xmlns="http://www.w3.org/2000/svg"><path d="m15.875 3.46875c0 .62891-.4922 1.09375-1.0938 1.09375-.0273 0-.0273 0-.0273 0l-1.3945 7.6016c-.0547.4101-.4375.7109-.8477.7109h-9.05076c-.41016 0-.79297-.3008-.84766-.7109l-1.39453-7.6016s0 0-.02734 0c-.601566 0-1.0937538-.46484-1.0937538-1.09375 0-.60156.4921878-1.09375 1.0937538-1.09375.57421 0 1.09375.49219 1.09375 1.09375 0 .24609-.10938.46484-.2461.65625l2.46094 1.96875c.4375.32813 1.06641.19141 1.3125-.30078l1.58594-3.14453c-.30078-.19141-.51953-.51953-.51953-.92969 0-.60156.49218-1.09375 1.12109-1.09375.60156 0 1.06641.49219 1.06641 1.09375 0 .41016-.21875.73828-.54688.92969l1.58597 3.14453c.2461.49219.9023.62891 1.3398.30078l2.4336-1.96875c-.1094-.19141-.1914-.41016-.1914-.65625 0-.60156.4648-1.09375 1.0937-1.09375.6016 0 1.0938.49219 1.0938 1.09375z" fill="#000"/></svg>