<svg fill="none" height="15" viewBox="0 0 18 15" width="18" xmlns="http://www.w3.org/2000/svg"><path d="m6.62109 3.12891 2.05079-2.05079c.16406-.164058.46484-.164058.6289 0l2.05082 2.05079c.164.16406.2734.38281.2734.6289v2.95313l1.0938.65625c.4101.24609.6562.68359.6562 1.14843v6.23438h-2.625v-2.625c0-.957-.79297-1.75-1.77734-1.75-.95704 0-1.75.793-1.75 1.75v2.625h-2.625v-6.23438c0-.46484.24609-.90234.65625-1.14843l1.09375-.65625v-2.95313c0-.24609.10937-.46484.27343-.6289zm-5.71484 6.67187 2.84375-1.55859v6.50781h-2.1875c-.738281 0-1.3125-.5742-1.3125-1.3125v-2.4883c0-.4922.246094-.9297.65625-1.14842zm15.53125 4.94922h-2.1875v-6.50781l2.8164 1.55859c.4102.21872.6836.65622.6836 1.14842v2.4883c0 .7383-.6016 1.3125-1.3125 1.3125z" fill="#000"/></svg>