<svg fill="none" height="15" viewBox="0 0 16 15" width="16" xmlns="http://www.w3.org/2000/svg"><path d="m10.543 4.87891 3.9101.57421c.3281.05469.6016.27344.711.60157.1093.30078.0273.65625-.2188.875l-2.8437 2.8164.6836 3.99221c.0546.3281-.0821.6562-.3555.8476-.2735.2188-.6289.2188-.9297.0821l-3.5-1.8868-3.52734 1.8868c-.27344.1367-.65625.1367-.90235-.0821-.27343-.1914-.41015-.5195-.35547-.8476l.65625-3.99221-2.84375-2.8164c-.24609-.21875-.328121-.57422-.218746-.875.109375-.32813.382816-.54688.710936-.60157l3.9375-.57421 1.75-3.63672c.13672-.300784.4375-.49219.79297-.49219.32812 0 .62891.191406.76562.49219z" fill="#000"/></svg>