<svg fill="none" height="15" viewBox="0 0 18 15" width="18" xmlns="http://www.w3.org/2000/svg"><path d="m8.97266 9.5c1.58594 0 2.84374-1.25781 2.84374-2.84375 0-1.55859-1.2852-2.84375-2.84374-2.84375-1.5586 0-2.81641 1.28516-2.81641 2.84375-.02734 1.58594 1.25781 2.84375 2.81641 2.84375zm1.36714.875h-2.70699c-2.16015 0-3.88281 1.6406-3.88281 3.6641 0 .4101.32812.7109.76562.7109h8.94138c.4375 0 .793-.3008.793-.7109 0-2.0235-1.75-3.6641-3.9102-3.6641zm3.9102-5.25c1.2031 0 2.1875-.95703 2.1875-2.1875 0-1.20312-.9844-2.1875-2.1875-2.1875-1.2305 0-2.1875.98438-2.1875 2.1875 0 1.23047.957 2.1875 2.1875 2.1875zm-8.99609 1.53125c0-.13672.02734-.27344.05468-.41016-.30078-.16406-.6289-.24609-.98437-.24609h-1.66797c-1.33984 0-2.40625 1.14844-2.40625 2.57031 0 .27344.191406.49219.464844.49219h5.468746c-.57421-.62891-.92968-1.47656-.92968-2.40625zm-1.50391-1.53125c1.20312 0 2.1875-.95703 2.1875-2.1875 0-1.20312-.98438-2.1875-2.1875-2.1875-1.23047 0-2.1875.98438-2.1875 2.1875 0 1.23047.95703 2.1875 2.1875 2.1875zm11.5664.875h-1.668c-.3554 0-.6836.10938-.9843.24609 0 .13672.0273.27344.0273.41016 0 .92969-.3281 1.77734-.9023 2.40625h5.4687c.2734 0 .4922-.21875.4922-.49219 0-1.42187-1.0938-2.57031-2.4336-2.57031z" fill="#000"/></svg>