<svg width="18" height="15" viewBox="0 0 18 15" fill="none" xmlns="http://www.w3.org/2000/svg">
<path d="M8.97266 9.5C10.5586 9.5 11.8164 8.24219 11.8164 6.65625C11.8164 5.09766 10.5312 3.8125 8.97266 3.8125C7.41406 3.8125 6.15625 5.09766 6.15625 6.65625C6.12891 8.24219 7.41406 9.5 8.97266 9.5ZM10.3398 10.375H7.63281C5.47266 10.375 3.75 12.0156 3.75 14.0391C3.75 14.4492 4.07812 14.75 4.51562 14.75H13.457C13.8945 14.75 14.25 14.4492 14.25 14.0391C14.25 12.0156 12.5 10.375 10.3398 10.375ZM14.25 5.125C15.4531 5.125 16.4375 4.16797 16.4375 2.9375C16.4375 1.73438 15.4531 0.75 14.25 0.75C13.0195 0.75 12.0625 1.73438 12.0625 2.9375C12.0625 4.16797 13.0195 5.125 14.25 5.125ZM5.25391 6.65625C5.25391 6.51953 5.28125 6.38281 5.30859 6.24609C5.00781 6.08203 4.67969 6 4.32422 6H2.65625C1.31641 6 0.25 7.14844 0.25 8.57031C0.25 8.84375 0.441406 9.0625 0.714844 9.0625H6.18359C5.60938 8.43359 5.25391 7.58594 5.25391 6.65625ZM3.75 5.125C4.95312 5.125 5.9375 4.16797 5.9375 2.9375C5.9375 1.73438 4.95312 0.75 3.75 0.75C2.51953 0.75 1.5625 1.73438 1.5625 2.9375C1.5625 4.16797 2.51953 5.125 3.75 5.125ZM15.3164 6H13.6484C13.293 6 12.9648 6.10938 12.6641 6.24609C12.6641 6.38281 12.6914 6.51953 12.6914 6.65625C12.6914 7.58594 12.3633 8.43359 11.7891 9.0625H17.2578C17.5312 9.0625 17.75 8.84375 17.75 8.57031C17.75 7.14844 16.6562 6 15.3164 6Z" fill="black"/>
</svg>
