<svg fill="none" height="13" viewBox="0 0 14 13" width="14" xmlns="http://www.w3.org/2000/svg"><path d="m11.375.625h-8.75c-.98438 0-1.75.79297-1.75 1.75v8.75c0 .9844.76562 1.75 1.75 1.75h8.75c.957 0 1.75-.7656 1.75-1.75v-8.75c0-.95703-.793-1.75-1.75-1.75zm-4.375 10.0625c-.49219 0-.875-.3828-.875-.875 0-.49219.35547-.875.875-.875.46484 0 .875.38281.875.875 0 .4922-.41016.875-.875.875zm1.88672-3.88281-1.23047.76562v.05469c0 .35547-.30078.65625-.65625.65625s-.65625-.30078-.65625-.65625v-.4375c0-.21875.10937-.4375.32813-.57422l1.55859-.92969c.19141-.10937.30078-.30078.30078-.51953 0-.32812-.27344-.60156-.60156-.60156h-1.42188c-.35547 0-.60156.27344-.60156.60156 0 .35547-.30078.65625-.65625.65625s-.65625-.30078-.65625-.65625c0-1.0664.84766-1.91406 1.88672-1.91406h1.42187c1.09375 0 1.94141.84766 1.94141 1.91406 0 .65625-.35547 1.28516-.95703 1.64063z" fill="#000"/></svg>