<svg width="14" height="13" viewBox="0 0 14 13" fill="none" xmlns="http://www.w3.org/2000/svg">
<path d="M11.375 0.625H2.625C1.64062 0.625 0.875 1.41797 0.875 2.375V11.125C0.875 12.1094 1.64062 12.875 2.625 12.875H11.375C12.332 12.875 13.125 12.1094 13.125 11.125V2.375C13.125 1.41797 12.332 0.625 11.375 0.625ZM7 10.6875C6.50781 10.6875 6.125 10.3047 6.125 9.8125C6.125 9.32031 6.48047 8.9375 7 8.9375C7.46484 8.9375 7.875 9.32031 7.875 9.8125C7.875 10.3047 7.46484 10.6875 7 10.6875ZM8.88672 6.80469L7.65625 7.57031V7.625C7.65625 7.98047 7.35547 8.28125 7 8.28125C6.64453 8.28125 6.34375 7.98047 6.34375 7.625V7.1875C6.34375 6.96875 6.45312 6.75 6.67188 6.61328L8.23047 5.68359C8.42188 5.57422 8.53125 5.38281 8.53125 5.16406C8.53125 4.83594 8.25781 4.5625 7.92969 4.5625H6.50781C6.15234 4.5625 5.90625 4.83594 5.90625 5.16406C5.90625 5.51953 5.60547 5.82031 5.25 5.82031C4.89453 5.82031 4.59375 5.51953 4.59375 5.16406C4.59375 4.09766 5.44141 3.25 6.48047 3.25H7.90234C8.99609 3.25 9.84375 4.09766 9.84375 5.16406C9.84375 5.82031 9.48828 6.44922 8.88672 6.80469Z" fill="black"/>
</svg>
